{
	"asset":{
		"generator":"Khronos glTF Blender I/O v5.0.21",
		"version":"2.0"
	},
	"extensionsUsed":[
		"KHR_materials_clearcoat",
		"KHR_materials_specular"
	],
	"scene":0,
	"scenes":[
		{
			"name":"Room",
			"nodes":[
				0,
				2,
				3,
				4
			]
		}
	],
	"nodes":[
		{
			"mesh":0,
			"name":"Powder",
			"rotation":[
				0.4999999403953552,
				0.4999999403953552,
				-0.5000000596046448,
				0.5000000596046448
			],
			"translation":[
				0.00010082125663757324,
				0.11223077774047852,
				0.00017642974853515625
			]
		},
		{
			"mesh":1,
			"name":"Cap",
			"scale":[
				0.009999999776482582,
				0.009999999776482582,
				0.009999999776482582
			],
			"translation":[
				-2.2292137145996094e-05,
				0.13668769598007202,
				0
			]
		},
		{
			"children":[
				1
			],
			"name":"Cap_Parent"
		},
		{
			"mesh":2,
			"name":"Bottle",
			"rotation":[
				0,
				-0.6087613701820374,
				0,
				0.7933533787727356
			],
			"scale":[
				0.009981561452150345,
				0.009981561452150345,
				0.009981561452150345
			],
			"translation":[
				0,
				0.06472772359848022,
				0
			]
		},
		{
			"mesh":3,
			"name":"Label.001",
			"rotation":[
				0,
				-0.6087613701820374,
				0,
				0.7933533787727356
			],
			"scale":[
				0.009981561452150345,
				0.009981561452150345,
				0.009981561452150345
			],
			"translation":[
				0,
				0.06472772359848022,
				0
			]
		}
	],
	"animations":[
		{
			"channels":[
				{
					"sampler":0,
					"target":{
						"node":1,
						"path":"translation"
					}
				},
				{
					"sampler":1,
					"target":{
						"node":1,
						"path":"rotation"
					}
				},
				{
					"sampler":2,
					"target":{
						"node":1,
						"path":"scale"
					}
				}
			],
			"name":"Take 001.017",
			"samplers":[
				{
					"input":21,
					"interpolation":"LINEAR",
					"output":22
				},
				{
					"input":21,
					"interpolation":"LINEAR",
					"output":23
				},
				{
					"input":24,
					"interpolation":"STEP",
					"output":25
				}
			]
		}
	],
	"materials":[
		{
			"doubleSided":true,
			"name":"Material",
			"pbrMetallicRoughness":{
				"baseColorTexture":{
					"index":0
				},
				"metallicFactor":0
			}
		},
		{
			"doubleSided":true,
			"extensions":{
				"KHR_materials_specular":{
					"specularColorFactor":[
						0.0,
						0.0,
						0.0
					]
				}
			},
			"name":"pasted__bottle2.004",
			"pbrMetallicRoughness":{
				"baseColorFactor":[
					0.8468736410140991,
					0.8468736410140991,
					0.8468736410140991,
					1
				],
				"metallicFactor":0,
				"roughnessFactor":0.5527864098548889
			}
		},
		{
			"doubleSided":true,
			"extensions":{
				"KHR_materials_specular":{
					"specularColorFactor":[
						0.0,
						0.0,
						0.0
					]
				}
			},
			"name":"pasted__bottle2.003",
			"pbrMetallicRoughness":{
				"baseColorFactor":[
					0.8468736410140991,
					0.8468736410140991,
					0.8468736410140991,
					1
				],
				"metallicFactor":0,
				"roughnessFactor":0.5527864098548889
			}
		},
		{
			"doubleSided":true,
			"extensions":{
				"KHR_materials_clearcoat":{
					"clearcoatRoughnessFactor":0.10000000149011612
				},
				"KHR_materials_specular":{
					"specularColorFactor":[
						2.0,
						2.0,
						2.0
					]
				}
			},
			"name":"VH_NewLabel.003",
			"pbrMetallicRoughness":{
				"baseColorTexture":{
					"index":1
				},
				"metallicFactor":0,
				"roughnessFactor":0.44545453786849976
			}
		}
	],
	"meshes":[
		{
			"name":"Powder",
			"primitives":[
				{
					"attributes":{
						"POSITION":0,
						"NORMAL":1,
						"TEXCOORD_0":2
					},
					"indices":3,
					"material":0
				}
			]
		},
		{
			"name":"Mesh.004",
			"primitives":[
				{
					"attributes":{
						"POSITION":4,
						"NORMAL":5,
						"TEXCOORD_0":6,
						"TEXCOORD_1":7
					},
					"indices":8,
					"material":1
				}
			]
		},
		{
			"name":"Mesh.007",
			"primitives":[
				{
					"attributes":{
						"POSITION":9,
						"NORMAL":10,
						"TEXCOORD_0":11,
						"TEXCOORD_1":12,
						"TEXCOORD_2":13
					},
					"indices":14,
					"material":2
				}
			]
		},
		{
			"name":"Mesh.006",
			"primitives":[
				{
					"attributes":{
						"POSITION":15,
						"NORMAL":16,
						"TEXCOORD_0":17,
						"TEXCOORD_1":18,
						"TEXCOORD_2":19
					},
					"indices":20,
					"material":3
				}
			]
		}
	],
	"textures":[
		{
			"sampler":0,
			"source":0
		},
		{
			"sampler":0,
			"source":1
		}
	],
	"images":[
		{
			"mimeType":"image/png",
			"name":"FLORA-Green Powder Photography-ae5c30f3 1 1",
			"uri":"FLORA-Green%20Powder%20Photography-ae5c30f3%201%201.png"
		},
		{
			"mimeType":"image/png",
			"name":"GV30-Original_Curved.png",
			"uri":"GV30-Original_Curved.png.png"
		}
	],
	"accessors":[
		{
			"bufferView":0,
			"componentType":5126,
			"count":4266,
			"max":[
				0.04676128923892975,
				0.04641386866569519,
				0.009579231962561607
			],
			"min":[
				-0.04654805362224579,
				-0.046711355447769165,
				-0.008776267990469933
			],
			"type":"VEC3"
		},
		{
			"bufferView":1,
			"componentType":5126,
			"count":4266,
			"type":"VEC3"
		},
		{
			"bufferView":2,
			"componentType":5126,
			"count":4266,
			"type":"VEC2"
		},
		{
			"bufferView":3,
			"componentType":5123,
			"count":24060,
			"type":"SCALAR"
		},
		{
			"bufferView":4,
			"componentType":5126,
			"count":209980,
			"max":[
				4.603946685791016,
				0.7440805435180664,
				4.612647533416748
			],
			"min":[
				-4.612209320068359,
				-0.6889486312866211,
				-4.603508472442627
			],
			"type":"VEC3"
		},
		{
			"bufferView":5,
			"componentType":5126,
			"count":209980,
			"type":"VEC3"
		},
		{
			"bufferView":6,
			"componentType":5126,
			"count":209980,
			"type":"VEC2"
		},
		{
			"bufferView":7,
			"componentType":5126,
			"count":209980,
			"type":"VEC2"
		},
		{
			"bufferView":8,
			"componentType":5125,
			"count":1255332,
			"type":"SCALAR"
		},
		{
			"bufferView":9,
			"componentType":5126,
			"count":17083,
			"max":[
				4.661619663238525,
				7.6586713790893555,
				4.66448450088501
			],
			"min":[
				-4.663098335266113,
				-6.491847991943359,
				-4.660233974456787
			],
			"type":"VEC3"
		},
		{
			"bufferView":10,
			"componentType":5126,
			"count":17083,
			"type":"VEC3"
		},
		{
			"bufferView":11,
			"componentType":5126,
			"count":17083,
			"type":"VEC2"
		},
		{
			"bufferView":12,
			"componentType":5126,
			"count":17083,
			"type":"VEC2"
		},
		{
			"bufferView":13,
			"componentType":5126,
			"count":17083,
			"type":"VEC2"
		},
		{
			"bufferView":14,
			"componentType":5123,
			"count":101928,
			"type":"SCALAR"
		},
		{
			"bufferView":15,
			"componentType":5126,
			"count":1143,
			"max":[
				4.6759819984436035,
				5.4342942237854,
				4.678854465484619
			],
			"min":[
				-4.6774725914001465,
				-5.108680248260498,
				-4.674600124359131
			],
			"type":"VEC3"
		},
		{
			"bufferView":16,
			"componentType":5126,
			"count":1143,
			"type":"VEC3"
		},
		{
			"bufferView":17,
			"componentType":5126,
			"count":1143,
			"type":"VEC2"
		},
		{
			"bufferView":18,
			"componentType":5126,
			"count":1143,
			"type":"VEC2"
		},
		{
			"bufferView":19,
			"componentType":5126,
			"count":1143,
			"type":"VEC2"
		},
		{
			"bufferView":20,
			"componentType":5123,
			"count":6048,
			"type":"SCALAR"
		},
		{
			"bufferView":21,
			"componentType":5126,
			"count":1784,
			"max":[
				59.46666666666667
			],
			"min":[
				0.03333333333333333
			],
			"type":"SCALAR"
		},
		{
			"bufferView":22,
			"componentType":5126,
			"count":1784,
			"type":"VEC3"
		},
		{
			"bufferView":23,
			"componentType":5126,
			"count":1784,
			"type":"VEC4"
		},
		{
			"bufferView":24,
			"componentType":5126,
			"count":2,
			"max":[
				59.46666666666667
			],
			"min":[
				0.03333333333333333
			],
			"type":"SCALAR"
		},
		{
			"bufferView":25,
			"componentType":5126,
			"count":2,
			"type":"VEC3"
		}
	],
	"bufferViews":[
		{
			"buffer":0,
			"byteLength":51192,
			"byteOffset":0,
			"target":34962
		},
		{
			"buffer":0,
			"byteLength":51192,
			"byteOffset":51192,
			"target":34962
		},
		{
			"buffer":0,
			"byteLength":34128,
			"byteOffset":102384,
			"target":34962
		},
		{
			"buffer":0,
			"byteLength":48120,
			"byteOffset":136512,
			"target":34963
		},
		{
			"buffer":0,
			"byteLength":2519760,
			"byteOffset":184632,
			"target":34962
		},
		{
			"buffer":0,
			"byteLength":2519760,
			"byteOffset":2704392,
			"target":34962
		},
		{
			"buffer":0,
			"byteLength":1679840,
			"byteOffset":5224152,
			"target":34962
		},
		{
			"buffer":0,
			"byteLength":1679840,
			"byteOffset":6903992,
			"target":34962
		},
		{
			"buffer":0,
			"byteLength":5021328,
			"byteOffset":8583832,
			"target":34963
		},
		{
			"buffer":0,
			"byteLength":204996,
			"byteOffset":13605160,
			"target":34962
		},
		{
			"buffer":0,
			"byteLength":204996,
			"byteOffset":13810156,
			"target":34962
		},
		{
			"buffer":0,
			"byteLength":136664,
			"byteOffset":14015152,
			"target":34962
		},
		{
			"buffer":0,
			"byteLength":136664,
			"byteOffset":14151816,
			"target":34962
		},
		{
			"buffer":0,
			"byteLength":136664,
			"byteOffset":14288480,
			"target":34962
		},
		{
			"buffer":0,
			"byteLength":203856,
			"byteOffset":14425144,
			"target":34963
		},
		{
			"buffer":0,
			"byteLength":13716,
			"byteOffset":14629000,
			"target":34962
		},
		{
			"buffer":0,
			"byteLength":13716,
			"byteOffset":14642716,
			"target":34962
		},
		{
			"buffer":0,
			"byteLength":9144,
			"byteOffset":14656432,
			"target":34962
		},
		{
			"buffer":0,
			"byteLength":9144,
			"byteOffset":14665576,
			"target":34962
		},
		{
			"buffer":0,
			"byteLength":9144,
			"byteOffset":14674720,
			"target":34962
		},
		{
			"buffer":0,
			"byteLength":12096,
			"byteOffset":14683864,
			"target":34963
		},
		{
			"buffer":0,
			"byteLength":7136,
			"byteOffset":14695960
		},
		{
			"buffer":0,
			"byteLength":21408,
			"byteOffset":14703096
		},
		{
			"buffer":0,
			"byteLength":28544,
			"byteOffset":14724504
		},
		{
			"buffer":0,
			"byteLength":8,
			"byteOffset":14753048
		},
		{
			"buffer":0,
			"byteLength":24,
			"byteOffset":14753056
		}
	],
	"samplers":[
		{
			"magFilter":9729,
			"minFilter":9987
		}
	],
	"buffers":[
		{
			"byteLength":14753080,
			"uri":"VibrantHealth_Anim_JustBottle_Fix2.bin"
		}
	]
}
