<svg width="571" height="575" viewBox="0 0 571 575" fill="none" xmlns="http://www.w3.org/2000/svg">
<path d="M380.19 12.1737L379.783 13.4104L375.86 12.1193L374.963 14.8454L378.022 15.8521L377.615 17.0888L374.556 16.0822L373.226 20.1248L371.71 19.6259L374.751 10.3836L380.19 12.1737ZM386.362 14.3266L384.184 20.1337C383.926 20.8241 383.91 21.4112 384.137 21.8952C384.373 22.3824 384.814 22.7472 385.461 22.9898C386.116 23.2356 386.689 23.2509 387.178 23.0357C387.676 22.8238 388.055 22.3726 388.314 21.6822L390.491 15.8752L391.986 16.4356L389.818 22.2165C389.539 22.9593 389.142 23.5278 388.625 23.9222C388.108 24.3165 387.531 24.5388 386.895 24.589C386.258 24.6393 385.612 24.5415 384.956 24.2957C384.301 24.0499 383.75 23.6987 383.303 23.242C382.865 22.7887 382.585 22.2452 382.464 21.6116C382.343 20.9781 382.421 20.2899 382.7 19.547L384.868 13.7662L386.362 14.3266ZM395.353 26.8287L398.385 28.1062L397.885 29.2931L393.382 27.3958L397.16 18.4294L398.631 19.0491L395.353 26.8287ZM403.927 30.54L406.914 31.9198L406.374 33.0891L401.938 31.0399L406.019 22.207L407.468 22.8764L403.927 30.54ZM423.793 30.9401C424.704 31.4332 425.405 32.0405 425.895 32.7622C426.398 33.4801 426.657 34.2673 426.671 35.1239C426.697 35.9767 426.475 36.8381 426.004 37.7082C425.534 38.5783 424.936 39.2314 424.212 39.6673C423.496 40.1077 422.7 40.3137 421.824 40.2853C420.961 40.2532 420.073 39.9906 419.162 39.4975L416.367 37.985L420.998 29.4276L423.793 30.9401ZM419.782 38.3524C420.783 38.8943 421.697 39.0388 422.524 38.7857C423.351 38.5327 424.031 37.9137 424.564 36.9287C425.101 35.9354 425.254 35.0154 425.023 34.1685C424.791 33.3216 424.175 32.6271 423.173 32.0852L421.782 31.3323L418.391 37.5995L419.782 38.3524ZM434.104 36.6392L429.16 45.0191L427.785 44.208L432.73 35.8281L434.104 36.6392ZM436.255 49.4767C435.703 49.127 435.266 48.7176 434.945 48.2486C434.628 47.7717 434.456 47.2759 434.429 46.7613C434.401 46.2466 434.538 45.7528 434.837 45.2798L436.28 46.1942C436.087 46.5689 436.04 46.9481 436.139 47.3316C436.247 47.7201 436.525 48.0567 436.974 48.3415C437.439 48.6363 437.872 48.7558 438.272 48.7C438.677 48.6363 438.992 48.427 439.217 48.0723C439.392 47.7964 439.451 47.5192 439.396 47.2409C439.348 46.9675 439.232 46.7061 439.047 46.4566C438.871 46.2121 438.605 45.8998 438.249 45.5196C437.803 45.0379 437.455 44.6187 437.206 44.2619C436.97 43.9023 436.831 43.4938 436.79 43.0365C436.748 42.5791 436.89 42.0942 437.214 41.5818C437.514 41.1089 437.895 40.7699 438.356 40.5651C438.817 40.3602 439.321 40.2981 439.867 40.3788C440.412 40.4594 440.965 40.6771 441.525 41.0318C442.321 41.5365 442.844 42.1497 443.093 42.8716C443.356 43.5905 443.295 44.3143 442.91 45.043L441.421 44.0987C441.587 43.7841 441.607 43.438 441.482 43.0602C441.357 42.6825 441.081 42.3587 440.656 42.0889C440.269 41.8441 439.892 41.7427 439.522 41.7849C439.153 41.8271 438.851 42.0335 438.616 42.404C438.456 42.6562 438.399 42.9126 438.443 43.1731C438.501 43.4307 438.618 43.6817 438.795 43.9262C438.971 44.1707 439.23 44.4781 439.57 44.8483C440.019 45.3428 440.365 45.7724 440.609 46.137C440.861 46.5067 441.005 46.9241 441.042 47.3893C441.092 47.8517 440.951 48.343 440.622 48.8633C440.357 49.2811 439.993 49.6028 439.529 49.8284C439.074 50.059 438.557 50.1512 437.978 50.105C437.413 50.0559 436.838 49.8465 436.255 49.4767ZM445.671 49.5774C446.216 48.7968 446.885 48.2221 447.677 47.8534C448.477 47.4899 449.308 47.3524 450.168 47.4408C451.041 47.5269 451.849 47.829 452.591 48.3473C453.441 48.9403 454.048 49.677 454.412 50.5574C454.789 51.4355 454.86 52.3613 454.624 53.335L453.051 52.2371C453.139 51.6719 453.071 51.1578 452.848 50.6947C452.625 50.2316 452.272 49.8318 451.79 49.4952C451.262 49.1266 450.708 48.9166 450.129 48.8653C449.551 48.8141 448.988 48.9275 448.44 49.2058C447.901 49.4894 447.426 49.9258 447.014 50.5151C446.603 51.1043 446.357 51.7011 446.277 52.3052C446.204 52.9147 446.289 53.4861 446.531 54.0195C446.779 54.5453 447.167 54.9925 447.695 55.3611C448.177 55.6977 448.674 55.8909 449.185 55.9407C449.697 55.9906 450.203 55.8772 450.703 55.6005L452.276 56.6984C451.443 57.2554 450.55 57.508 449.595 57.4565C448.649 57.4103 447.751 57.0906 446.901 56.4976C446.151 55.974 445.587 55.3236 445.207 54.5465C444.833 53.7617 444.679 52.9311 444.744 52.0548C444.817 51.1838 445.126 50.358 445.671 49.5774ZM456.736 61.8323L459.35 63.8311L458.567 64.8542L454.686 61.8858L460.598 54.1573L461.865 55.1269L456.736 61.8323ZM465.397 70.4811C464.701 69.9025 464.193 69.207 463.873 68.3949C463.566 67.5815 463.482 66.7409 463.62 65.8731C463.772 65.0041 464.152 64.2036 464.761 63.4714C465.369 62.7393 466.084 62.2227 466.904 61.9217C467.732 61.6266 468.571 61.5592 469.421 61.7194C470.284 61.8784 471.063 62.2472 471.76 62.8259C472.463 63.4105 472.968 64.1095 473.275 64.9229C473.595 65.7351 473.683 66.5721 473.537 67.4339C473.391 68.2957 473.014 69.0926 472.405 69.8248C471.797 70.5569 471.079 71.0771 470.253 71.3853C469.432 71.6864 468.59 71.7574 467.727 71.5984C466.877 71.4382 466.101 71.0658 465.397 70.4811ZM466.283 69.4152C466.779 69.8268 467.312 70.0825 467.885 70.1821C468.463 70.2745 469.033 70.2021 469.595 69.9647C470.169 69.7262 470.686 69.3305 471.145 68.7778C471.605 68.2251 471.896 67.6482 472.02 67.0469C472.15 66.4516 472.114 65.8816 471.912 65.337C471.709 64.7923 471.36 64.3142 470.865 63.9026C470.37 63.4909 469.836 63.2353 469.263 63.1357C468.691 63.0361 468.12 63.1019 467.551 63.3333C466.99 63.5707 466.48 63.9657 466.02 64.5184C465.561 65.0711 465.263 65.6487 465.126 66.2512C465.003 66.8524 465.04 67.4289 465.236 67.9808C465.439 68.5254 465.788 69.0036 466.283 69.4152ZM475.129 78.8225C474.646 78.3823 474.287 77.9034 474.051 77.3857C473.822 76.8611 473.739 76.343 473.801 75.8314C473.864 75.3199 474.084 74.8572 474.461 74.4434L475.723 75.5942C475.468 75.9297 475.356 76.2949 475.387 76.6899C475.425 77.0911 475.641 77.471 476.034 77.8294C476.441 78.2004 476.846 78.3932 477.25 78.4076C477.66 78.4151 478.006 78.2637 478.289 77.9533C478.51 77.7119 478.616 77.4494 478.61 77.1656C478.61 76.8881 478.541 76.6105 478.403 76.3328C478.272 76.0613 478.064 75.7076 477.779 75.2714C477.423 74.7197 477.154 74.2465 476.971 73.8519C476.8 73.4568 476.734 73.0304 476.773 72.5728C476.811 72.1151 477.035 71.6622 477.443 71.2139C477.821 70.8001 478.254 70.5323 478.744 70.4107C479.234 70.289 479.741 70.3151 480.264 70.4892C480.787 70.6633 481.294 70.9736 481.784 71.42C482.48 72.0552 482.889 72.7499 483.01 73.5041C483.143 74.2577 482.958 74.9599 482.453 75.6109L481.149 74.4223C481.367 74.1414 481.448 73.804 481.39 73.4103C481.332 73.0166 481.117 72.6499 480.745 72.3103C480.407 72.0022 480.052 71.8368 479.681 71.8143C479.31 71.7918 478.977 71.9426 478.681 72.2667C478.48 72.4874 478.379 72.7299 478.378 72.9942C478.39 73.258 478.462 73.5255 478.593 73.7969C478.725 74.0684 478.926 74.4158 479.196 74.8394C479.553 75.4044 479.819 75.8876 479.996 76.289C480.18 76.6967 480.25 77.1329 480.205 77.5974C480.174 78.0613 479.951 78.5209 479.536 78.9761C479.202 79.3416 478.788 79.5952 478.292 79.737C477.804 79.8851 477.279 79.8862 476.717 79.7403C476.168 79.5938 475.639 79.2879 475.129 78.8225ZM489.293 78.6033L484.922 83.0026C484.402 83.5256 484.146 84.0543 484.155 84.5889C484.17 85.13 484.422 85.644 484.912 86.1308C485.408 86.6242 485.924 86.8734 486.459 86.8783C487 86.8898 487.53 86.6341 488.05 86.111L492.422 81.7117L493.554 82.8367L489.202 87.2162C488.643 87.7789 488.047 88.1339 487.413 88.281C486.78 88.4282 486.163 88.3939 485.562 88.178C484.961 87.9621 484.412 87.6074 483.915 87.114C483.419 86.6206 483.061 86.074 482.841 85.4741C482.628 84.8808 482.596 84.2704 482.746 83.643C482.896 83.0155 483.25 82.4205 483.81 81.8577L488.161 77.4783L489.293 78.6033ZM493.747 97.1203L495.089 92.8351L494.263 91.9397L491.402 94.5783L490.32 93.4051L497.473 86.8086L499.751 89.2785C500.257 89.8274 500.588 90.3791 500.744 90.9336C500.906 91.495 500.911 92.017 500.76 92.4997C500.614 92.9892 500.343 93.4174 499.945 93.7844C499.478 94.2147 498.926 94.4698 498.289 94.5497C497.665 94.6301 497.025 94.4523 496.369 94.0163L495.037 98.5199L493.747 97.1203ZM495.2 91.076L496.396 92.3727C496.801 92.8118 497.214 93.0399 497.636 93.057C498.065 93.0809 498.464 92.922 498.834 92.5803C499.205 92.2386 499.392 91.8631 499.395 91.4537C499.405 91.038 499.205 90.6072 498.794 90.1612L497.598 88.8645L495.2 91.076ZM505.84 97.9496L503.663 99.7989L505.839 102.359L504.847 103.202L502.671 100.642L500.398 102.573L502.846 105.453L501.854 106.296L498.373 102.2L505.798 95.8903L509.279 99.9872L508.287 100.83L505.84 97.9496ZM511.256 115.926L513.233 118.556L512.204 119.33L509.268 115.424L517.045 109.577L518.004 110.853L511.256 115.926ZM519.8 126.57L517.479 123.222L515.446 123.779L514.497 122.41L524.491 119.723L525.544 121.241L519.523 129.658L518.565 128.278L519.8 126.57ZM520.615 125.46L523.429 121.583L518.804 122.848L520.615 125.46ZM529.104 135.21C529.303 135.702 529.306 136.224 529.112 136.775C528.919 137.327 528.577 137.757 528.087 138.064C527.668 138.328 527.219 138.455 526.74 138.448C526.274 138.443 525.814 138.297 525.358 138.01C524.91 137.719 524.515 137.3 524.172 136.755L522.101 133.46L530.339 128.282L532.313 131.423C532.666 131.984 532.874 132.526 532.937 133.048C533.001 133.57 532.935 134.036 532.741 134.445C532.554 134.849 532.263 135.176 531.868 135.424C531.393 135.722 530.919 135.844 530.444 135.79C529.969 135.735 529.522 135.542 529.104 135.21ZM527.727 131.809L528.777 133.48C529.056 133.923 529.37 134.204 529.722 134.325C530.086 134.449 530.458 134.392 530.837 134.153C531.209 133.92 531.418 133.612 531.464 133.23C531.524 132.851 531.414 132.44 531.136 131.998L530.086 130.326L527.727 131.809ZM525.2 135.944C525.488 136.402 525.824 136.692 526.21 136.814C526.595 136.935 526.985 136.872 527.38 136.624C527.783 136.37 528.016 136.031 528.079 135.605C528.143 135.18 528.03 134.738 527.742 134.28L526.625 132.502L524.052 134.118L525.2 135.944ZM536.51 140.73L534.035 142.153L535.709 145.066L534.581 145.715L532.906 142.802L530.321 144.289L532.205 147.566L531.076 148.215L528.396 143.554L536.844 138.697L539.523 143.358L538.395 144.007L536.51 140.73ZM535.443 153.415L536.981 156.324L535.842 156.926L533.558 152.606L542.16 148.059L542.906 149.47L535.443 153.415ZM547.313 157.977L538.583 162.274L537.878 160.842L546.608 156.545L547.313 157.977ZM544.098 174.231L543.446 172.774L548.118 165.424L541.485 168.391L540.834 166.934L549.728 162.955L550.38 164.412L545.721 171.757L552.341 168.795L552.992 170.252L544.098 174.231ZM555.186 183.002C555.546 182.59 555.757 182.132 555.82 181.626C555.891 181.117 555.819 180.589 555.605 180.041C555.37 179.442 555.026 178.96 554.572 178.596C554.119 178.232 553.592 178.013 552.991 177.938C552.394 177.871 551.769 177.965 551.117 178.221C550.466 178.476 549.939 178.833 549.537 179.291C549.147 179.754 548.909 180.274 548.824 180.848C548.738 181.423 548.813 182.01 549.048 182.61C549.365 183.418 549.848 183.986 550.497 184.313C551.146 184.64 551.88 184.708 552.698 184.518L551.365 181.116L552.551 180.651L554.507 185.644L553.347 186.098C552.605 186.278 551.859 186.28 551.108 186.103C550.361 185.935 549.681 185.595 549.069 185.083C548.47 184.576 548.015 183.927 547.705 183.136C547.372 182.284 547.263 181.43 547.378 180.573C547.502 179.712 547.834 178.936 548.374 178.243C548.918 177.559 549.634 177.043 550.52 176.695C551.406 176.348 552.281 176.241 553.145 176.374C554.013 176.515 554.78 176.861 555.447 177.412C556.126 177.968 556.63 178.667 556.96 179.51C557.338 180.475 557.435 181.424 557.25 182.359C557.076 183.299 556.622 184.108 555.886 184.788L555.186 183.002ZM559.493 351.911L559.855 350.357L568.021 347.328L560.944 345.68L561.306 344.125L570.796 346.336L570.434 347.89L562.282 350.922L569.345 352.567L568.983 354.121L559.493 351.911ZM556.953 361.177C557.202 360.307 557.634 359.562 558.248 358.941C558.869 358.333 559.605 357.917 560.455 357.694C561.311 357.483 562.197 357.509 563.112 357.77C564.028 358.032 564.788 358.478 565.394 359.108C565.998 359.747 566.398 360.487 566.593 361.33C566.795 362.184 566.772 363.046 566.523 363.916C566.271 364.795 565.835 365.54 565.214 366.148C564.6 366.768 563.869 367.185 563.021 367.399C562.174 367.613 561.293 367.589 560.377 367.327C559.462 367.065 558.697 366.618 558.082 365.985C557.476 365.356 557.071 364.614 556.869 363.76C556.674 362.917 556.701 362.057 556.953 361.177ZM558.286 361.559C558.108 362.178 558.09 362.769 558.229 363.334C558.378 363.9 558.673 364.393 559.117 364.811C559.567 365.241 560.137 365.554 560.828 365.752C561.519 365.95 562.164 365.984 562.764 365.855C563.362 365.735 563.869 365.472 564.286 365.067C564.703 364.662 565 364.15 565.177 363.531C565.354 362.912 565.373 362.32 565.234 361.756C565.094 361.192 564.804 360.696 564.363 360.269C563.92 359.851 563.353 359.543 562.662 359.345C561.971 359.147 561.322 359.107 560.716 359.225C560.115 359.354 559.603 359.62 559.177 360.022C558.76 360.427 558.463 360.939 558.286 361.559ZM556.331 385.546C555.866 385.377 555.468 385.107 555.136 384.738C554.804 384.368 554.594 383.894 554.507 383.316C554.428 382.741 554.526 382.076 554.801 381.322L555.406 379.665L551.697 378.313L552.244 376.813L561.385 380.147L560.234 383.303C559.978 384.005 559.639 384.552 559.218 384.945C558.802 385.349 558.345 385.595 557.846 385.681C557.345 385.777 556.84 385.731 556.331 385.546ZM556.025 381.768C555.817 382.338 555.789 382.81 555.941 383.183C556.102 383.56 556.419 383.834 556.892 384.007C557.892 384.372 558.598 383.988 559.01 382.857L559.615 381.2L556.629 380.111L556.025 381.768ZM546.368 392.184L550.82 391.598L551.284 390.472L547.687 388.988L548.295 387.512L557.29 391.224L556.008 394.33C555.723 395.02 555.362 395.553 554.925 395.927C554.484 396.311 554.013 396.535 553.511 396.601C553.006 396.675 552.503 396.609 552.003 396.403C551.416 396.161 550.952 395.767 550.611 395.223C550.276 394.691 550.168 394.035 550.287 393.256L545.641 393.944L546.368 392.184ZM552.462 390.958L551.789 392.589C551.561 393.141 551.528 393.612 551.691 394.002C551.849 394.401 552.161 394.696 552.627 394.889C553.093 395.081 553.513 395.092 553.885 394.923C554.267 394.757 554.573 394.394 554.804 393.833L555.477 392.203L552.462 390.958ZM541.732 402.494C542.116 401.674 542.66 401.006 543.365 400.491C544.075 399.988 544.866 399.694 545.741 399.609C546.62 399.536 547.491 399.701 548.353 400.105C549.215 400.508 549.896 401.069 550.395 401.787C550.889 402.513 551.167 403.308 551.227 404.17C551.291 405.046 551.132 405.893 550.748 406.713C550.36 407.541 549.812 408.207 549.102 408.71C548.397 409.225 547.61 409.521 546.739 409.598C545.868 409.675 545.002 409.511 544.14 409.108C543.277 408.704 542.593 408.142 542.085 407.42C541.587 406.702 541.305 405.906 541.241 405.03C541.181 404.168 541.345 403.322 541.732 402.494ZM542.988 403.081C542.715 403.664 542.602 404.246 542.651 404.825C542.708 405.408 542.922 405.941 543.293 406.424C543.67 406.919 544.183 407.319 544.834 407.624C545.485 407.929 546.117 408.065 546.73 408.032C547.339 408.008 547.881 407.829 548.357 407.495C548.832 407.161 549.207 406.703 549.48 406.12C549.753 405.536 549.865 404.955 549.817 404.376C549.768 403.797 549.56 403.262 549.193 402.77C548.821 402.287 548.31 401.893 547.659 401.588C547.008 401.284 546.374 401.142 545.756 401.162C545.143 401.194 544.595 401.376 544.111 401.705C543.635 402.039 543.261 402.498 542.988 403.081ZM540.589 420.425C540.151 420.195 539.792 419.875 539.512 419.465C539.232 419.054 539.087 418.557 539.078 417.972C539.077 417.392 539.263 416.746 539.636 416.035L540.455 414.473L536.959 412.639L537.701 411.226L546.317 415.747L544.755 418.722C544.408 419.383 544 419.88 543.53 420.213C543.064 420.559 542.578 420.742 542.073 420.761C541.563 420.789 541.068 420.677 540.589 420.425ZM540.788 416.64C540.507 417.177 540.416 417.641 540.517 418.031C540.626 418.426 540.904 418.74 541.35 418.975C542.292 419.469 543.043 419.183 543.603 418.117L544.422 416.555L541.608 415.078L540.788 416.64ZM529.833 425.678L534.323 425.688L534.933 424.634L531.564 422.685L532.364 421.304L540.786 426.176L539.103 429.084C538.729 429.73 538.301 430.21 537.818 430.524C537.33 430.845 536.833 431.005 536.327 431.004C535.816 431.01 535.327 430.878 534.858 430.607C534.309 430.289 533.901 429.838 533.636 429.253C533.374 428.681 533.354 428.017 533.575 427.261L528.879 427.326L529.833 425.678ZM536.036 425.272L535.153 426.799C534.854 427.316 534.759 427.778 534.868 428.186C534.972 428.603 535.242 428.937 535.678 429.189C536.115 429.442 536.529 429.509 536.921 429.39C537.321 429.277 537.673 428.957 537.976 428.432L538.86 426.905L536.036 425.272ZM533.763 438.121L525.515 432.96L526.361 431.607L534.61 436.768L533.763 438.121ZM528.86 443.36L526.489 441.767L524.616 444.557L523.535 443.831L525.408 441.041L522.932 439.379L520.825 442.517L519.744 441.791L522.741 437.328L530.83 442.76L527.833 447.223L526.752 446.498L528.86 443.36ZM521.084 456.76L520.03 455.995L521.551 453.899L514.73 448.949L515.667 447.657L522.488 452.607L524.018 450.499L525.071 451.264L521.084 456.76ZM508.329 460.65L510.86 457.458L509.737 455.674L510.772 454.369L516.242 463.154L515.094 464.602L505.292 461.28L506.336 459.964L508.329 460.65ZM509.627 461.108L514.154 462.678L511.602 458.618L509.627 461.108ZM499.091 468.669L503.499 469.527L504.297 468.607L501.357 466.057L502.402 464.851L509.753 471.226L507.552 473.764C507.063 474.328 506.551 474.719 506.017 474.935C505.478 475.159 504.959 475.222 504.463 475.125C503.96 475.035 503.504 474.813 503.096 474.458C502.616 474.042 502.301 473.522 502.151 472.898C502.002 472.286 502.107 471.63 502.467 470.93L497.844 470.108L499.091 468.669ZM505.26 469.441L504.104 470.774C503.713 471.225 503.532 471.662 503.562 472.083C503.586 472.511 503.788 472.89 504.169 473.221C504.549 473.551 504.943 473.695 505.351 473.653C505.765 473.617 506.171 473.369 506.568 472.911L507.724 471.578L505.26 469.441ZM496.667 485.754L494.376 479.152L491.813 476.727L492.91 475.568L495.473 477.993L502.2 479.907L500.978 481.199L495.961 479.554L497.88 484.473L496.667 485.754ZM481.381 494.111C480.935 494.398 480.423 494.498 479.845 494.41C479.267 494.323 478.781 494.067 478.387 493.643C478.051 493.28 477.842 492.863 477.76 492.391C477.678 491.932 477.736 491.452 477.933 490.951C478.136 490.457 478.474 489.991 478.946 489.553L481.798 486.905L488.418 494.036L485.699 496.56C485.213 497.011 484.719 497.316 484.218 497.476C483.717 497.635 483.247 497.658 482.809 497.542C482.377 497.434 482.002 497.208 481.685 496.866C481.304 496.456 481.096 496.012 481.061 495.535C481.026 495.059 481.133 494.584 481.381 494.111ZM484.467 492.126L483.02 493.469C482.637 493.824 482.419 494.186 482.365 494.554C482.312 494.935 482.437 495.289 482.742 495.618C483.04 495.939 483.382 496.087 483.766 496.062C484.149 496.05 484.532 495.866 484.915 495.51L486.362 494.168L484.467 492.126ZM479.934 490.412C479.537 490.78 479.315 491.165 479.267 491.566C479.219 491.967 479.354 492.338 479.671 492.68C479.995 493.029 480.372 493.195 480.802 493.178C481.232 493.161 481.645 492.968 482.042 492.6L483.581 491.171L481.514 488.945L479.934 490.412ZM472.685 496.987L470.193 499.136L469.352 498.16L473.053 494.97L479.406 502.339L478.198 503.381L472.685 496.987ZM470.011 508.602L468.227 506.372L465.603 508.471L464.79 507.454L467.414 505.355L465.551 503.026L462.599 505.387L461.786 504.371L465.984 501.013L472.071 508.622L467.872 511.98L467.059 510.963L470.011 508.602ZM451.376 512.218L452.663 511.274L460.834 514.289L456.534 508.432L457.82 507.487L463.587 515.342L462.3 516.286L454.138 513.282L458.43 519.128L457.143 520.073L451.376 512.218ZM449.917 525.103C449.054 525.676 448.189 526.01 447.321 526.105C446.451 526.212 445.635 526.071 444.872 525.682C444.106 525.306 443.45 524.705 442.902 523.882C442.354 523.058 442.058 522.224 442.012 521.38C441.959 520.541 442.151 519.741 442.587 518.981C443.02 518.233 443.668 517.573 444.531 516.999L447.178 515.24L452.563 523.344L449.917 525.103ZM445.251 518.084C444.303 518.714 443.747 519.454 443.583 520.302C443.418 521.151 443.646 522.042 444.266 522.975C444.891 523.915 445.632 524.482 446.489 524.675C447.345 524.868 448.248 524.649 449.196 524.019L450.513 523.143L446.569 517.208L445.251 518.084ZM281.839 564.603L283.434 564.627L288.126 571.965L288.236 564.7L289.832 564.724L289.684 574.467L288.088 574.443L283.397 567.119L283.287 574.37L281.691 574.346L281.839 564.603ZM272.244 564.097C273.148 564.154 273.968 564.416 274.705 564.884C275.433 565.36 275.996 565.989 276.396 566.772C276.785 567.563 276.95 568.434 276.89 569.384C276.83 570.334 276.557 571.173 276.072 571.9C275.577 572.626 274.939 573.175 274.158 573.546C273.367 573.927 272.52 574.088 271.617 574.031C270.704 573.973 269.884 573.706 269.156 573.23C268.419 572.763 267.855 572.138 267.465 571.356C267.075 570.574 266.91 569.708 266.97 568.758C267.03 567.808 267.303 566.964 267.789 566.228C268.274 565.501 268.912 564.948 269.703 564.568C270.484 564.196 271.331 564.039 272.244 564.097ZM272.157 565.48C271.514 565.439 270.932 565.548 270.411 565.805C269.889 566.071 269.471 566.465 269.158 566.988C268.834 567.519 268.65 568.144 268.604 568.861C268.559 569.578 268.664 570.216 268.918 570.774C269.164 571.332 269.529 571.772 270.014 572.092C270.498 572.413 271.062 572.593 271.705 572.634C272.347 572.674 272.929 572.566 273.451 572.309C273.972 572.052 274.394 571.663 274.717 571.141C275.03 570.618 275.21 569.998 275.255 569.281C275.301 568.564 275.201 567.922 274.956 567.354C274.701 566.796 274.332 566.352 273.848 566.022C273.363 565.701 272.799 565.521 272.157 565.48ZM254.699 562.649L256.285 562.826L260.249 570.581L261.057 563.36L262.643 563.538L261.559 573.221L259.973 573.044L256.007 565.303L255.201 572.51L253.615 572.332L254.699 562.649ZM234.732 566.535C234.891 567.058 235.168 567.48 235.564 567.801C235.958 568.131 236.444 568.35 237.022 568.457C237.655 568.576 238.246 568.539 238.795 568.346C239.343 568.154 239.808 567.823 240.19 567.353C240.563 566.882 240.814 566.302 240.942 565.614C241.07 564.926 241.046 564.29 240.87 563.706C240.683 563.13 240.369 562.654 239.926 562.277C239.484 561.9 238.946 561.653 238.313 561.535C237.46 561.376 236.722 561.485 236.101 561.863C235.48 562.241 235.034 562.827 234.762 563.621L238.354 564.291L238.121 565.543L232.85 564.561L233.078 563.336C233.318 562.611 233.711 561.977 234.259 561.434C234.797 560.889 235.445 560.492 236.204 560.244C236.951 560.004 237.742 559.962 238.577 560.117C239.476 560.285 240.259 560.644 240.925 561.196C241.59 561.757 242.073 562.449 242.375 563.275C242.667 564.098 242.727 564.978 242.552 565.914C242.378 566.85 242.005 567.649 241.436 568.312C240.857 568.973 240.157 569.441 239.337 569.715C238.506 569.997 237.645 570.055 236.755 569.889C235.737 569.699 234.88 569.278 234.185 568.626C233.479 567.982 233.033 567.168 232.846 566.184L234.732 566.535ZM217.017 565.456L219.305 555.999L220.857 556.375L219.289 562.852L223.741 557.073L224.816 557.333L226.147 564.511L227.715 558.034L229.266 558.41L226.977 567.867L225.303 567.462L223.778 559.242L218.677 565.858L217.017 565.456ZM210.066 553.363C210.933 553.622 211.673 554.063 212.286 554.684C212.888 555.312 213.295 556.053 213.507 556.905C213.709 557.764 213.673 558.65 213.4 559.562C213.127 560.474 212.673 561.229 212.036 561.828C211.39 562.424 210.645 562.815 209.8 563.001C208.944 563.193 208.082 563.159 207.215 562.9C206.339 562.638 205.6 562.193 204.998 561.565C204.385 560.944 203.977 560.208 203.773 559.358C203.569 558.508 203.604 557.627 203.877 556.715C204.149 555.803 204.605 555.043 205.245 554.435C205.882 553.837 206.628 553.441 207.484 553.249C208.329 553.063 209.189 553.101 210.066 553.363ZM209.669 554.691C209.052 554.507 208.46 554.481 207.895 554.614C207.326 554.755 206.83 555.046 206.407 555.484C205.972 555.929 205.652 556.495 205.446 557.184C205.24 557.873 205.198 558.518 205.32 559.119C205.434 559.718 205.69 560.228 206.09 560.65C206.49 561.071 206.999 561.374 207.616 561.559C208.233 561.743 208.824 561.769 209.39 561.636C209.956 561.503 210.455 561.219 210.887 560.783C211.31 560.345 211.625 559.781 211.831 559.093C212.037 558.404 212.084 557.756 211.974 557.148C211.852 556.547 211.592 556.031 211.194 555.6C210.794 555.178 210.286 554.875 209.669 554.691ZM193.241 553.217C192.901 554.107 192.391 554.826 191.711 555.375C191.023 555.921 190.251 556.256 189.394 556.378C188.526 556.506 187.669 556.408 186.824 556.084C185.856 555.714 185.089 555.146 184.523 554.38C183.944 553.619 183.652 552.738 183.645 551.736L185.437 552.421C185.489 552.991 185.679 553.473 186.007 553.869C186.336 554.264 186.775 554.567 187.324 554.777C187.925 555.007 188.513 555.077 189.087 554.986C189.661 554.896 190.18 554.65 190.644 554.248C191.099 553.842 191.454 553.304 191.711 552.632C191.968 551.961 192.062 551.323 191.994 550.717C191.917 550.108 191.697 549.574 191.332 549.115C190.965 548.665 190.481 548.325 189.879 548.095C189.33 547.885 188.801 547.817 188.293 547.893C187.784 547.968 187.321 548.2 186.902 548.59L185.11 547.905C185.784 547.163 186.59 546.702 187.528 546.521C188.458 546.337 189.407 546.43 190.374 546.8C191.228 547.127 191.934 547.621 192.49 548.284C193.043 548.955 193.393 549.723 193.542 550.589C193.681 551.452 193.581 552.328 193.241 553.217ZM176.702 550.569L177.836 547.948L174.752 546.614L175.269 545.419L178.353 546.753L179.536 544.016L176.067 542.516L176.584 541.321L181.518 543.455L177.65 552.398L172.716 550.264L173.232 549.069L176.702 550.569ZM167.419 537.084L167.747 541.562L168.844 542.091L170.534 538.585L171.972 539.279L167.746 548.043L164.719 546.584C164.047 546.259 163.536 545.868 163.187 545.41C162.83 544.947 162.633 544.464 162.597 543.959C162.552 543.451 162.647 542.952 162.882 542.465C163.158 541.893 163.577 541.453 164.14 541.144C164.691 540.84 165.352 540.77 166.122 540.934L165.704 536.257L167.419 537.084ZM168.291 543.239L166.702 542.473C166.164 542.213 165.695 542.153 165.296 542.292C164.889 542.428 164.576 542.722 164.357 543.176C164.138 543.63 164.103 544.048 164.25 544.43C164.393 544.82 164.738 545.147 165.285 545.411L166.874 546.177L168.291 543.239ZM151.115 539.667L151.729 538.519L154.012 539.743L157.993 532.314L159.4 533.068L155.419 540.496L157.714 541.726L157.1 542.874L151.115 539.667ZM145.347 536.479L150.204 528.048L151.587 528.845L146.73 537.276L145.347 536.479ZM135.759 530.724L136.441 529.615L139.959 531.78L141.463 529.336L138.721 527.648L139.403 526.539L142.145 528.227L144.376 524.602L145.735 525.439L140.636 533.725L135.759 530.724ZM130.3 527.259L135.663 519.14L136.995 520.02L131.631 528.138L130.3 527.259ZM125.186 522.23L126.835 519.898L124.092 517.957L124.845 516.895L127.587 518.835L129.31 516.401L126.224 514.218L126.976 513.155L131.365 516.26L125.736 524.214L121.348 521.109L122.1 520.046L125.186 522.23ZM114.427 515.975C113.607 515.343 113.012 514.631 112.643 513.84C112.261 513.051 112.132 512.233 112.255 511.385C112.365 510.539 112.722 509.724 113.325 508.94C113.929 508.157 114.623 507.607 115.408 507.293C116.185 506.972 117.003 506.896 117.864 507.064C118.711 507.234 119.545 507.635 120.366 508.267L122.883 510.206L116.945 517.914L114.427 515.975ZM119.571 509.298C118.669 508.603 117.79 508.315 116.933 508.433C116.077 508.55 115.307 509.053 114.623 509.94C113.934 510.835 113.636 511.718 113.729 512.591C113.822 513.464 114.32 514.248 115.222 514.943L116.475 515.909L120.824 510.264L119.571 509.298ZM22.9012 385.802C22.0027 386.117 21.1243 386.192 20.2657 386.028C19.4041 385.855 18.6501 385.482 18.0037 384.907C17.3454 384.327 16.8665 383.61 16.5671 382.755C16.2244 381.777 16.1626 380.825 16.3816 379.898C16.5887 378.965 17.0724 378.172 17.8328 377.52L18.4672 379.33C18.0661 379.738 17.8207 380.194 17.7311 380.701C17.6414 381.207 17.6938 381.737 17.8883 382.292C18.1013 382.9 18.4277 383.394 18.8674 383.774C19.3072 384.154 19.8303 384.391 20.4369 384.485C21.0403 384.57 21.6812 384.494 22.3594 384.256C23.0376 384.018 23.5859 383.678 24.0041 383.234C24.4193 382.782 24.6845 382.269 24.7997 381.695C24.906 381.123 24.8527 380.534 24.6397 379.926C24.4452 379.371 24.155 378.924 23.769 378.585C23.383 378.245 22.9061 378.041 22.3383 377.973L21.704 376.163C22.7052 376.198 23.5779 376.515 24.3221 377.115C25.0632 377.706 25.605 378.49 25.9477 379.468C26.2502 380.331 26.3283 381.189 26.182 382.041C26.0268 382.896 25.6666 383.661 25.1014 384.333C24.533 384.997 23.7996 385.487 22.9012 385.802ZM21.0787 369.398L20.1165 366.251L21.3482 365.875L22.7772 370.547L13.4726 373.393L13.0058 371.866L21.0787 369.398ZM10.2811 362.662L19.6691 360.105L20.0885 361.645L10.7005 364.202L10.2811 362.662ZM16.5267 347.318L16.8899 348.872L10.9075 355.202L17.9828 353.548L18.3461 355.102L8.85778 357.32L8.49454 355.766L14.4633 349.439L7.40165 351.09L7.03841 349.536L16.5267 347.318ZM5.53043 342.58L15.0781 340.705L15.3856 342.271L5.83795 344.146L5.53043 342.58ZM9.37633 336.909C8.43601 337.057 7.55824 336.974 6.74299 336.659C5.92629 336.335 5.25148 335.832 4.71854 335.151C4.17493 334.462 3.83241 333.67 3.69099 332.776C3.52916 331.753 3.63907 330.805 4.02072 329.932C4.3917 329.051 5.00969 328.358 5.87471 327.853L6.17431 329.747C5.70664 330.076 5.38335 330.482 5.20442 330.963C5.02549 331.445 4.98196 331.977 5.07381 332.557C5.1744 333.194 5.40696 333.738 5.77147 334.19C6.13598 334.643 6.60817 334.97 7.18806 335.171C7.76648 335.363 8.41062 335.403 9.12046 335.291C9.83031 335.179 10.4307 334.942 10.9217 334.581C11.4111 334.21 11.764 333.753 11.9803 333.209C12.1874 332.666 12.2406 332.076 12.14 331.44C12.0481 330.859 11.8428 330.367 11.5239 329.964C11.205 329.561 10.7724 329.275 10.226 329.106L9.92635 327.212C10.9051 327.426 11.7068 327.894 12.3314 328.617C12.9546 329.331 13.3471 330.2 13.509 331.223C13.6518 332.127 13.5749 332.985 13.2782 333.797C12.9722 334.611 12.4808 335.298 11.8041 335.859C11.1259 336.41 10.3166 336.76 9.37633 336.909ZM9.38607 316.261L9.82705 320.311L11.8791 320.792L12.0595 322.448L1.99539 320.038L1.79536 318.2L11.1048 313.68L11.2866 315.35L9.38607 316.261ZM8.14021 316.848L3.81602 318.91L8.48421 320.007L8.14021 316.848ZM9.24875 307.609L9.01545 304.327L10.3002 304.236L10.6467 309.11L0.941176 309.8L0.828 308.208L9.24875 307.609ZM8.68014 298.282L8.56281 294.994L9.84999 294.948L10.0242 299.831L0.300425 300.178L0.243507 298.583L8.68014 298.282ZM0.0013548 283.325L6.20283 286.546L9.73083 286.546L9.73057 288.142L6.20257 288.142L4.42944e-05 291.375L0.000333746 289.597L4.7747 287.344L0.00106763 285.089L0.0013548 283.325ZM0.663385 265.949L1.96286 266.031L1.70584 270.152L4.57028 270.331L4.77067 267.117L6.07014 267.198L5.86976 270.412L10.1175 270.677L10.0182 272.27L0.307047 271.664L0.663385 265.949ZM11.2704 257.607C11.1747 258.507 10.8776 259.315 10.379 260.032C9.87219 260.738 9.21921 261.274 8.42009 261.64C7.61268 261.995 6.73564 262.123 5.78897 262.022C4.84231 261.921 4.01627 261.613 3.31087 261.097C2.60646 260.571 2.08539 259.911 1.74765 259.115C1.40161 258.308 1.27644 257.455 1.37214 256.555C1.46882 255.645 1.77057 254.837 2.27741 254.131C2.77595 253.414 3.42429 252.877 4.22242 252.521C5.02055 252.165 5.89295 252.037 6.83962 252.138C7.78629 252.238 8.61696 252.547 9.33164 253.064C10.037 253.58 10.5628 254.242 10.9088 255.048C11.2465 255.844 11.3671 256.697 11.2704 257.607ZM9.89214 257.46C9.96021 256.82 9.87703 256.234 9.64259 255.702C9.39886 255.169 9.02265 254.735 8.51395 254.399C7.99695 254.053 7.38113 253.842 6.66649 253.767C5.95184 253.691 5.31008 253.768 4.7412 253.998C4.1733 254.22 3.71886 254.565 3.37788 255.036C3.03689 255.507 2.83236 256.062 2.76429 256.702C2.69622 257.343 2.77941 257.929 3.01385 258.461C3.24829 258.992 3.61937 259.431 4.12709 259.776C4.63579 260.111 5.24747 260.317 5.96211 260.393C6.67675 260.469 7.32266 260.397 7.89983 260.177C8.46872 259.946 8.92829 259.596 9.27856 259.127C9.61954 258.656 9.82407 258.101 9.89214 257.46ZM13.0036 243.042L8.81711 244.666L8.63254 245.87L12.4796 246.46L12.2377 248.038L2.62011 246.563L3.12926 243.242C3.24241 242.504 3.46703 241.901 3.80313 241.433C4.14065 240.956 4.5453 240.626 5.01709 240.444C5.49029 240.252 5.99444 240.197 6.52952 240.279C7.15686 240.375 7.70055 240.647 8.16061 241.096C8.61286 241.533 8.87325 242.144 8.94179 242.929L13.2921 241.16L13.0036 243.042ZM7.37325 245.677L7.64056 243.934C7.73107 243.343 7.65135 242.878 7.40139 242.537C7.15285 242.188 6.77948 241.975 6.2813 241.898C5.78313 241.822 5.37302 241.91 5.051 242.163C4.71975 242.414 4.50816 242.84 4.41623 243.439L4.14892 245.183L7.37325 245.677ZM6.61619 224.271L16.1489 226.22L15.8292 227.784L9.3003 226.449L15.2346 230.691L15.013 231.775L7.88675 233.362L14.4157 234.697L14.0959 236.26L4.56317 234.311L4.90815 232.624L13.0678 230.806L6.27402 225.944L6.61619 224.271ZM8.21005 217.201L14.2158 218.749C14.9298 218.933 15.5154 218.886 15.9724 218.609C16.4317 218.322 16.7476 217.845 16.9199 217.176C17.0946 216.498 17.0489 215.927 16.7829 215.464C16.5192 214.991 16.0303 214.662 15.3163 214.478L9.31053 212.931L9.7088 211.385L15.6875 212.926C16.4557 213.124 17.0634 213.459 17.5104 213.931C17.9575 214.402 18.2399 214.952 18.3576 215.58C18.4753 216.208 18.4468 216.861 18.2721 217.539C18.0975 218.217 17.8069 218.802 17.4004 219.295C16.9962 219.779 16.4855 220.114 15.8684 220.302C15.2514 220.49 14.5587 220.485 13.7905 220.287L7.81178 218.747L8.21005 217.201ZM19.6898 206.93L20.643 203.781L21.8758 204.155L20.4601 208.831L11.1475 206.012L11.6099 204.484L19.6898 206.93ZM23.2252 193.749L21.8973 197.6L23.5486 198.91L23.0056 200.485L14.9299 194.013L15.5322 192.266L25.8803 192.146L25.3327 193.735L23.2252 193.749ZM21.8482 193.748L17.0575 193.769L20.8124 196.752L21.8482 193.748ZM20.6736 178.403L21.8849 178.88L20.9351 181.29L28.7759 184.381L28.1906 185.865L20.3498 182.775L19.3949 185.197L18.1836 184.72L20.6736 178.403ZM24.4015 172.757L27.0156 173.908L28.369 170.832L29.5607 171.357L28.2073 174.432L30.9367 175.633L32.4593 172.173L33.651 172.698L31.4856 177.618L22.567 173.694L24.7323 168.773L25.9241 169.297L24.4015 172.757ZM28.3866 160.96C28.8429 160.03 29.4218 159.306 30.1233 158.787C30.8205 158.256 31.5968 157.966 32.4521 157.918C33.3032 157.857 34.1728 158.044 35.061 158.48C35.9492 158.916 36.6256 159.487 37.0901 160.193C37.5587 160.89 37.7963 161.678 37.803 162.554C37.8054 163.418 37.5784 164.315 37.1222 165.245L35.7225 168.099L26.987 163.813L28.3866 160.96ZM35.9532 164.672C36.4547 163.65 36.5625 162.73 36.2767 161.915C35.9908 161.099 35.3451 160.444 34.3396 159.951C33.3257 159.453 32.4002 159.337 31.5633 159.602C30.7263 159.867 30.057 160.511 29.5556 161.533L28.8588 162.954L35.2565 166.092L35.9532 164.672ZM144.647 35.7622L149.609 44.1316L148.236 44.9456L144.837 39.2134L145.683 46.4593L144.732 47.0234L138.768 42.8122L142.167 48.5443L140.794 49.3583L135.832 40.9889L137.313 40.1107L144.143 44.9314L143.177 36.6333L144.647 35.7622ZM158.351 37.0467L154.746 38.9445L155.053 41.0297L153.579 41.8058L152.124 31.5598L153.759 30.6989L161.383 37.697L159.897 38.4797L158.351 37.0467ZM157.348 36.1033L153.842 32.8389L154.536 37.5837L157.348 36.1033ZM164.219 25.4414C165.157 25.0019 166.062 24.7995 166.934 24.8342C167.81 24.8565 168.597 25.1167 169.294 25.6146C169.996 26.1001 170.557 26.7908 170.976 27.6867C171.396 28.5826 171.566 29.4512 171.486 30.2926C171.415 31.13 171.107 31.8925 170.564 32.5801C170.024 33.2553 169.286 33.8127 168.348 34.2522L165.47 35.6006L161.342 26.7898L164.219 25.4414ZM167.795 33.0732C168.826 32.5901 169.486 31.941 169.774 31.1258C170.062 30.3106 169.968 29.3959 169.493 28.3817C169.014 27.359 168.365 26.689 167.546 26.3717C166.728 26.0544 165.803 26.1373 164.772 26.6204L163.339 27.2917L166.363 33.7445L167.795 33.0732ZM175.467 21.7206L176.572 24.3541L179.671 23.0538L180.175 24.2544L177.076 25.5547L178.23 28.3043L181.716 26.8415L182.22 28.0421L177.263 30.1225L173.492 21.1377L178.449 19.0573L178.953 20.2578L175.467 21.7206ZM191.423 14.0448L194.672 23.2162L193.168 23.7491L189.918 14.5778L191.423 14.0448ZM207.189 19.1298L205.667 19.6078L198.909 14.1135L201.085 21.046L199.562 21.524L196.644 12.2273L198.167 11.7493L204.92 17.2302L202.748 10.3111L204.271 9.83308L207.189 19.1298ZM217.915 6.0385L219.347 12.073C219.517 12.7904 219.832 13.2865 220.29 13.5614C220.758 13.8342 221.328 13.8908 222 13.7314C222.681 13.5698 223.164 13.2632 223.451 12.8116C223.746 12.3579 223.808 11.7723 223.638 11.0549L222.206 5.02041L223.759 4.65196L225.184 10.6592C225.368 11.4311 225.355 12.1248 225.146 12.7403C224.937 13.3558 224.582 13.8621 224.082 14.259C223.581 14.6559 222.99 14.9352 222.309 15.0968C221.628 15.2584 220.975 15.2743 220.349 15.1446C219.733 15.0127 219.198 14.7176 218.744 14.2594C218.29 13.8011 217.971 13.1861 217.788 12.4142L216.363 6.40695L217.915 6.0385ZM234.199 12.4646C233.557 12.5879 232.958 12.5888 232.403 12.4674C231.846 12.3369 231.381 12.0935 231.008 11.7374C230.636 11.3813 230.397 10.9282 230.291 10.3783L231.968 10.0561C232.084 10.4615 232.31 10.7699 232.645 10.9811C232.989 11.1906 233.423 11.2451 233.945 11.1448C234.486 11.0409 234.883 10.8316 235.136 10.5168C235.387 10.1929 235.474 9.82476 235.394 9.4123C235.333 9.0915 235.186 8.84876 234.955 8.68408C234.733 8.51765 234.469 8.40672 234.164 8.35131C233.868 8.29414 233.46 8.24892 232.941 8.21567C232.286 8.1704 231.745 8.10313 231.319 8.01385C230.901 7.91364 230.52 7.71121 230.176 7.40656C229.833 7.10191 229.604 6.6517 229.489 6.05592C229.384 5.50598 229.429 4.99836 229.624 4.53309C229.82 4.06781 230.144 3.67765 230.597 3.3626C231.05 3.04755 231.602 2.82753 232.252 2.70253C233.178 2.52472 233.979 2.6132 234.655 2.96798C235.339 3.31184 235.791 3.8809 236.01 4.67516L234.277 5.0079C234.183 4.66489 233.961 4.39869 233.611 4.20931C233.261 4.01993 232.838 3.97278 232.343 4.06784C231.894 4.15411 231.55 4.3391 231.31 4.62283C231.069 4.90655 230.991 5.2638 231.074 5.6946C231.13 5.9879 231.264 6.21407 231.475 6.3731C231.693 6.52121 231.951 6.62385 232.247 6.68102C232.543 6.73819 232.941 6.78516 233.443 6.82194C234.109 6.87461 234.655 6.95017 235.083 7.04862C235.52 7.1453 235.911 7.35056 236.256 7.66437C236.609 7.96726 236.843 8.42117 236.96 9.02612C237.053 9.5119 237.008 9.99572 236.825 10.4776C236.651 10.9577 236.338 11.379 235.885 11.7417C235.439 12.0934 234.877 12.3344 234.199 12.4646ZM247.873 8.02051L243.843 8.61517L243.441 10.6841L241.792 10.9272L243.819 0.778757L245.647 0.509015L250.518 9.63982L248.856 9.88504L247.873 8.02051ZM247.24 6.79785L245.015 2.55519L244.096 7.26172L247.24 6.79785Z" fill="#84C12F"/>
</svg>
