<svg width="578" height="578" viewBox="0 0 578 578" fill="none" xmlns="http://www.w3.org/2000/svg">
<path d="M380.142 14.6069L379.735 15.8436L375.812 14.5525L374.915 17.2786L377.974 18.2853L377.567 19.522L374.508 18.5154L373.178 22.5581L371.662 22.0591L374.703 12.8168L380.142 14.6069ZM386.314 16.7599L384.136 22.5669C383.878 23.2573 383.862 23.8445 384.089 24.3284C384.325 24.8156 384.766 25.1805 385.413 25.423C386.068 25.6688 386.641 25.6841 387.13 25.4689C387.628 25.257 388.007 24.8059 388.266 24.1155L390.443 18.3084L391.938 18.8688L389.77 24.6497C389.491 25.3925 389.094 25.9611 388.577 26.3554C388.06 26.7497 387.483 26.972 386.847 27.0223C386.21 27.0725 385.564 26.9747 384.908 26.7289C384.253 26.4831 383.702 26.1319 383.255 25.6753C382.817 25.2219 382.537 24.6785 382.416 24.0449C382.295 23.4113 382.373 22.7231 382.652 21.9803L384.82 16.1994L386.314 16.7599ZM395.305 29.2619L398.337 30.5394L397.837 31.7264L393.334 29.8291L397.112 20.8626L398.583 21.4823L395.305 29.2619ZM403.879 32.9732L406.866 34.3531L406.326 35.5223L401.89 33.4731L405.971 24.6402L407.42 25.3096L403.879 32.9732ZM423.745 33.3733C424.656 33.8664 425.357 34.4738 425.847 35.1954C426.35 35.9133 426.609 36.7005 426.623 37.5571C426.649 38.4099 426.427 39.2714 425.956 40.1415C425.486 41.0116 424.888 41.6646 424.164 42.1005C423.448 42.5409 422.652 42.7469 421.776 42.7185C420.913 42.6864 420.025 42.4238 419.114 41.9307L416.319 40.4182L420.95 31.8608L423.745 33.3733ZM419.734 40.7856C420.735 41.3276 421.649 41.472 422.476 41.219C423.303 40.9659 423.983 40.3469 424.516 39.3619C425.053 38.3687 425.206 37.4486 424.975 36.6017C424.743 35.7548 424.127 35.0604 423.125 34.5184L421.734 33.7655L418.343 40.0327L419.734 40.7856ZM434.056 39.0724L429.112 47.4523L427.737 46.6412L432.682 38.2613L434.056 39.0724ZM436.207 51.91C435.655 51.5602 435.218 51.1508 434.897 50.6818C434.58 50.2049 434.408 49.7091 434.381 49.1945C434.353 48.6799 434.49 48.186 434.789 47.7131L436.232 48.6274C436.039 49.0022 435.992 49.3813 436.091 49.7648C436.199 50.1533 436.477 50.49 436.926 50.7748C437.391 51.0696 437.824 51.1891 438.224 51.1332C438.629 51.0695 438.944 50.8603 439.169 50.5055C439.344 50.2296 439.403 49.9525 439.348 49.6741C439.3 49.4008 439.184 49.1393 438.999 48.8898C438.823 48.6453 438.557 48.333 438.201 47.9528C437.755 47.4711 437.407 47.0519 437.158 46.6952C436.922 46.3355 436.783 45.927 436.742 45.4697C436.7 45.0124 436.842 44.5275 437.166 44.0151C437.466 43.5421 437.847 43.2032 438.308 42.9983C438.769 42.7935 439.273 42.7314 439.819 42.812C440.364 42.8926 440.917 43.1103 441.477 43.4651C442.273 43.9697 442.796 44.583 443.045 45.3048C443.308 46.0237 443.247 46.7476 442.862 47.4763L441.373 46.5319C441.539 46.2173 441.559 45.8712 441.434 45.4935C441.309 45.1157 441.033 44.792 440.608 44.5221C440.221 44.2773 439.844 44.176 439.474 44.2182C439.105 44.2603 438.803 44.4667 438.568 44.8372C438.408 45.0895 438.351 45.3458 438.396 45.6063C438.453 45.8639 438.57 46.115 438.747 46.3594C438.923 46.6039 439.182 46.9113 439.522 47.2815C439.971 47.776 440.317 48.2056 440.561 48.5703C440.813 48.9399 440.957 49.3573 440.994 49.8226C441.044 50.2849 440.903 50.7762 440.574 51.2965C440.309 51.7143 439.945 52.036 439.481 52.2616C439.026 52.4922 438.509 52.5844 437.93 52.5382C437.365 52.4891 436.79 52.2797 436.207 51.91ZM445.623 52.0107C446.168 51.2301 446.837 50.6554 447.629 50.2866C448.429 49.9232 449.26 49.7856 450.12 49.874C450.993 49.9601 451.801 50.2623 452.543 50.7805C453.393 51.3735 454 52.1103 454.364 52.9906C454.741 53.8687 454.812 54.7946 454.576 55.7682L453.004 54.6703C453.091 54.1051 453.023 53.591 452.8 53.1279C452.577 52.6649 452.224 52.265 451.742 51.9284C451.214 51.5598 450.66 51.3498 450.081 51.2986C449.503 51.2473 448.94 51.3608 448.393 51.639C447.853 51.9226 447.378 52.359 446.966 52.9483C446.555 53.5376 446.309 54.1343 446.229 54.7384C446.156 55.3479 446.241 55.9194 446.483 56.4528C446.731 56.9785 447.119 57.4257 447.647 57.7944C448.129 58.1309 448.626 58.3242 449.137 58.374C449.649 58.4238 450.155 58.3104 450.655 58.0337L452.228 59.1317C451.395 59.6886 450.502 59.9413 449.547 59.8897C448.601 59.8435 447.703 59.5238 446.853 58.9308C446.103 58.4072 445.539 57.7569 445.159 56.9797C444.785 56.1949 444.631 55.3644 444.696 54.488C444.769 53.617 445.078 52.7912 445.623 52.0107ZM456.689 64.2656L459.302 66.2643L458.519 67.2874L454.638 64.319L460.55 56.5905L461.817 57.5601L456.689 64.2656ZM465.349 72.9144C464.653 72.3357 464.145 71.6403 463.825 70.8281C463.518 70.0147 463.434 69.1741 463.572 68.3064C463.724 67.4374 464.104 66.6368 464.713 65.9047C465.321 65.1725 466.036 64.6559 466.856 64.3549C467.684 64.0598 468.523 63.9924 469.373 64.1526C470.236 64.3116 471.015 64.6804 471.712 65.2591C472.415 65.8437 472.92 66.5427 473.227 67.3561C473.547 68.1683 473.635 69.0053 473.489 69.8671C473.343 70.7289 472.966 71.5259 472.357 72.258C471.749 72.9902 471.031 73.5104 470.205 73.8186C469.384 74.1196 468.542 74.1906 467.679 74.0316C466.829 73.8714 466.053 73.499 465.349 72.9144ZM466.235 71.8484C466.731 72.2601 467.264 72.5157 467.837 72.6153C468.415 72.7078 468.985 72.6353 469.547 72.398C470.121 72.1594 470.638 71.7638 471.098 71.2111C471.557 70.6584 471.848 70.0814 471.972 69.4801C472.102 68.8848 472.066 68.3149 471.864 67.7702C471.661 67.2256 471.312 66.7474 470.817 66.3358C470.322 65.9242 469.788 65.6685 469.215 65.5689C468.643 65.4693 468.072 65.5352 467.504 65.7665C466.942 66.0039 466.432 66.3989 465.972 66.9516C465.513 67.5043 465.215 68.0819 465.078 68.6844C464.955 69.2856 464.992 69.8622 465.188 70.414C465.391 70.9587 465.74 71.4368 466.235 71.8484ZM475.081 81.2558C474.598 80.8156 474.239 80.3366 474.004 79.8189C473.775 79.2943 473.691 78.7763 473.753 78.2647C473.816 77.7531 474.036 77.2904 474.413 76.8766L475.675 78.0274C475.42 78.3629 475.308 78.7281 475.339 79.1231C475.377 79.5243 475.593 79.9042 475.986 80.2626C476.393 80.6337 476.798 80.8264 477.202 80.8408C477.612 80.8483 477.958 80.6969 478.241 80.3866C478.462 80.1452 478.568 79.8826 478.562 79.5988C478.562 79.3213 478.493 79.0437 478.355 78.766C478.224 78.4946 478.016 78.1408 477.731 77.7047C477.376 77.1529 477.106 76.6797 476.923 76.2852C476.752 75.89 476.686 75.4636 476.725 75.006C476.763 74.5484 476.987 74.0954 477.396 73.6471C477.773 73.2333 478.206 72.9656 478.696 72.8439C479.186 72.7222 479.693 72.7484 480.216 72.9224C480.74 73.0965 481.246 73.4068 481.736 73.8533C482.432 74.4884 482.841 75.1831 482.962 75.9373C483.095 76.6909 482.91 77.3932 482.405 78.0441L481.101 76.8555C481.319 76.5746 481.4 76.2373 481.342 75.8435C481.284 75.4498 481.069 75.0831 480.697 74.7435C480.359 74.4354 480.004 74.2701 479.633 74.2475C479.262 74.225 478.929 74.3758 478.633 74.7C478.432 74.9207 478.331 75.1632 478.33 75.4275C478.342 75.6912 478.414 75.9587 478.545 76.2302C478.677 76.5016 478.878 76.8491 479.148 77.2726C479.505 77.8376 479.771 78.3208 479.949 78.7222C480.132 79.13 480.202 79.5661 480.157 80.0306C480.126 80.4945 479.903 80.9541 479.488 81.4093C479.154 81.7748 478.74 82.0285 478.244 82.1702C477.756 82.3183 477.231 82.3194 476.669 82.1735C476.12 82.027 475.591 81.7211 475.081 81.2558ZM489.246 81.0365L484.874 85.4358C484.354 85.9588 484.098 86.4876 484.107 87.0221C484.122 87.5633 484.374 88.0772 484.864 88.5641C485.361 89.0575 485.876 89.3066 486.411 89.3116C486.952 89.323 487.482 89.0673 488.002 88.5443L492.374 84.145L493.506 85.2699L489.154 89.6494C488.595 90.2121 487.999 90.5671 487.365 90.7143C486.732 90.8615 486.115 90.8271 485.514 90.6112C484.913 90.3953 484.364 90.0407 483.867 89.5473C483.371 89.0539 483.013 88.5072 482.793 87.9073C482.58 87.314 482.548 86.7037 482.698 86.0762C482.848 85.4488 483.202 84.8537 483.762 84.2909L488.113 79.9115L489.246 81.0365ZM493.699 99.5535L495.041 95.2683L494.215 94.3729L491.354 97.0115L490.272 95.8383L497.425 89.2418L499.703 91.7117C500.209 92.2606 500.54 92.8123 500.696 93.3668C500.858 93.9282 500.863 94.4502 500.712 94.9329C500.567 95.4224 500.295 95.8506 499.897 96.2176C499.43 96.6479 498.878 96.903 498.241 96.9829C497.617 97.0634 496.977 96.8856 496.321 96.4495L494.989 100.953L493.699 99.5535ZM495.152 93.5092L496.348 94.8059C496.753 95.245 497.166 95.4731 497.588 95.4902C498.017 95.5141 498.416 95.3552 498.786 95.0135C499.157 94.6719 499.344 94.2963 499.347 93.8869C499.357 93.4712 499.157 93.0404 498.746 92.5944L497.55 91.2977L495.152 93.5092ZM505.792 100.383L503.615 102.232L505.791 104.793L504.799 105.636L502.623 103.075L500.35 105.006L502.798 107.887L501.806 108.73L498.325 104.633L505.75 98.3235L509.231 102.42L508.239 103.263L505.792 100.383ZM511.209 118.359L513.186 120.989L512.156 121.763L509.22 117.858L516.997 112.011L517.956 113.286L511.209 118.359ZM519.752 129.003L517.431 125.655L515.398 126.212L514.449 124.843L524.443 122.156L525.496 123.674L519.475 132.091L518.517 130.711L519.752 129.003ZM520.567 127.893L523.381 124.016L518.756 125.281L520.567 127.893ZM529.056 137.643C529.255 138.135 529.258 138.657 529.064 139.208C528.871 139.76 528.529 140.19 528.039 140.498C527.62 140.761 527.171 140.889 526.692 140.881C526.226 140.876 525.766 140.73 525.31 140.444C524.862 140.152 524.467 139.733 524.124 139.188L522.053 135.893L530.291 130.715L532.265 133.857C532.618 134.418 532.826 134.959 532.89 135.481C532.953 136.004 532.888 136.469 532.693 136.878C532.506 137.283 532.215 137.609 531.82 137.857C531.345 138.155 530.871 138.277 530.396 138.223C529.921 138.169 529.474 137.975 529.056 137.643ZM527.679 134.242L528.729 135.913C529.008 136.356 529.322 136.638 529.674 136.758C530.038 136.882 530.41 136.825 530.789 136.586C531.161 136.353 531.37 136.045 531.416 135.663C531.476 135.284 531.366 134.873 531.088 134.431L530.038 132.76L527.679 134.242ZM525.152 138.377C525.44 138.835 525.776 139.125 526.162 139.247C526.547 139.369 526.937 139.305 527.332 139.057C527.735 138.804 527.968 138.464 528.031 138.039C528.095 137.613 527.982 137.171 527.694 136.713L526.577 134.935L524.004 136.551L525.152 138.377ZM536.462 143.163L533.987 144.587L535.661 147.499L534.533 148.148L532.858 145.236L530.273 146.722L532.157 149.999L531.028 150.648L528.348 145.987L536.796 141.13L539.475 145.791L538.347 146.44L536.462 143.163ZM535.395 155.848L536.933 158.757L535.794 159.359L533.51 155.039L542.112 150.492L542.858 151.903L535.395 155.848ZM547.265 160.41L538.535 164.707L537.83 163.275L546.56 158.978L547.265 160.41ZM544.05 176.664L543.398 175.207L548.07 167.857L541.437 170.824L540.786 169.367L549.68 165.388L550.332 166.845L545.673 174.19L552.293 171.229L552.944 172.685L544.05 176.664ZM555.138 185.435C555.498 185.024 555.709 184.565 555.772 184.059C555.843 183.55 555.771 183.022 555.557 182.474C555.322 181.875 554.978 181.393 554.525 181.029C554.071 180.666 553.544 180.446 552.943 180.371C552.346 180.304 551.721 180.399 551.069 180.654C550.418 180.909 549.891 181.266 549.489 181.724C549.099 182.188 548.861 182.707 548.776 183.282C548.69 183.856 548.765 184.444 549 185.043C549.317 185.851 549.8 186.419 550.449 186.746C551.098 187.073 551.832 187.141 552.65 186.951L551.317 183.549L552.503 183.084L554.459 188.077L553.299 188.532C552.557 188.712 551.811 188.713 551.06 188.536C550.313 188.368 549.633 188.028 549.021 187.516C548.422 187.009 547.967 186.36 547.657 185.569C547.324 184.718 547.215 183.863 547.33 183.006C547.454 182.146 547.786 181.369 548.327 180.676C548.87 179.992 549.586 179.476 550.472 179.129C551.358 178.781 552.234 178.674 553.097 178.807C553.965 178.948 554.732 179.294 555.399 179.845C556.078 180.401 556.582 181.1 556.912 181.943C557.29 182.908 557.387 183.858 557.202 184.792C557.028 185.732 556.574 186.542 555.838 187.221L555.138 185.435ZM567.23 294.532L567.252 292.936L574.583 288.235L567.318 288.135L567.34 286.539L577.083 286.673L577.061 288.269L569.744 292.971L576.995 293.071L576.973 294.666L567.23 294.532ZM566.739 304.128C566.794 303.224 567.055 302.403 567.521 301.665C567.996 300.937 568.625 300.372 569.407 299.971C570.197 299.58 571.068 299.414 572.018 299.472C572.968 299.531 573.807 299.802 574.535 300.286C575.262 300.78 575.812 301.416 576.185 302.197C576.567 302.987 576.73 303.834 576.674 304.738C576.618 305.65 576.353 306.471 575.878 307.199C575.412 307.937 574.788 308.502 574.006 308.894C573.225 309.285 572.359 309.452 571.409 309.394C570.459 309.335 569.615 309.064 568.878 308.579C568.15 308.095 567.596 307.458 567.214 306.667C566.841 305.887 566.683 305.04 566.739 304.128ZM568.122 304.212C568.083 304.855 568.192 305.437 568.45 305.958C568.717 306.479 569.112 306.896 569.635 307.209C570.167 307.531 570.792 307.715 571.509 307.759C572.227 307.803 572.864 307.697 573.422 307.441C573.98 307.195 574.418 306.829 574.738 306.344C575.058 305.859 575.237 305.295 575.277 304.652C575.316 304.009 575.207 303.427 574.949 302.906C574.691 302.386 574.301 301.964 573.778 301.642C573.255 301.33 572.635 301.151 571.918 301.107C571.2 301.063 570.558 301.164 569.992 301.41C569.433 301.665 568.99 302.036 568.661 302.52C568.341 303.006 568.162 303.57 568.122 304.212ZM571.417 328.038C570.927 327.974 570.479 327.798 570.074 327.511C569.669 327.223 569.361 326.806 569.149 326.261C568.947 325.717 568.897 325.047 569.001 324.251L569.228 322.502L565.313 321.994L565.518 320.411L575.167 321.663L574.735 324.996C574.639 325.736 574.428 326.344 574.103 326.819C573.785 327.305 573.393 327.645 572.926 327.838C572.457 328.041 571.954 328.108 571.417 328.038ZM570.292 324.419C570.214 325.02 570.29 325.487 570.52 325.818C570.759 326.15 571.129 326.349 571.628 326.413C572.683 326.55 573.289 326.022 573.444 324.828L573.671 323.079L570.519 322.669L570.292 324.419ZM563.128 336.692L567.349 335.16L567.56 333.96L563.727 333.286L564.003 331.714L573.586 333.4L573.004 336.709C572.875 337.444 572.637 338.042 572.291 338.502C571.943 338.972 571.531 339.293 571.055 339.465C570.578 339.646 570.073 339.69 569.539 339.596C568.914 339.486 568.377 339.202 567.927 338.744C567.484 338.297 567.237 337.68 567.186 336.894L562.798 338.567L563.128 336.692ZM568.815 334.181L568.509 335.918C568.406 336.507 568.475 336.974 568.717 337.319C568.958 337.675 569.327 337.896 569.823 337.983C570.32 338.07 570.731 337.991 571.059 337.746C571.396 337.502 571.617 337.081 571.722 336.483L572.027 334.746L568.815 334.181ZM560.829 347.759C561.026 346.876 561.413 346.106 561.989 345.451C562.573 344.806 563.283 344.348 564.118 344.075C564.96 343.813 565.846 343.786 566.775 343.993C567.705 344.201 568.49 344.6 569.133 345.193C569.773 345.795 570.216 346.511 570.461 347.34C570.714 348.18 570.742 349.042 570.544 349.926C570.345 350.819 569.954 351.587 569.37 352.232C568.794 352.887 568.089 353.347 567.256 353.61C566.422 353.874 565.541 353.902 564.612 353.695C563.683 353.488 562.892 353.087 562.241 352.492C561.598 351.899 561.151 351.183 560.899 350.342C560.653 349.513 560.63 348.652 560.829 347.759ZM562.182 348.061C562.042 348.69 562.058 349.281 562.231 349.836C562.413 350.393 562.737 350.867 563.205 351.258C563.679 351.66 564.267 351.94 564.968 352.096C565.67 352.253 566.316 352.249 566.908 352.084C567.497 351.929 567.988 351.636 568.38 351.207C568.772 350.778 569.038 350.25 569.178 349.621C569.318 348.993 569.302 348.401 569.129 347.846C568.957 347.291 568.638 346.814 568.172 346.413C567.705 346.022 567.12 345.748 566.419 345.592C565.717 345.436 565.068 345.434 564.469 345.588C563.878 345.752 563.382 346.048 562.98 346.475C562.588 346.904 562.322 347.432 562.182 348.061ZM563.59 365.516C563.112 365.386 562.693 365.151 562.331 364.811C561.969 364.47 561.72 364.016 561.585 363.447C561.458 362.881 561.5 362.21 561.711 361.436L562.174 359.734L558.365 358.697L558.784 357.157L568.173 359.712L567.29 362.954C567.094 363.675 566.803 364.248 566.416 364.675C566.035 365.113 565.6 365.396 565.111 365.524C564.619 365.661 564.112 365.658 563.59 365.516ZM562.967 361.778C562.808 362.363 562.82 362.835 563.003 363.195C563.194 363.556 563.533 363.803 564.02 363.936C565.046 364.215 565.718 363.774 566.034 362.612L566.497 360.91L563.431 360.076L562.967 361.778ZM554.222 372.968L558.609 372.007L558.976 370.846L555.266 369.671L555.748 368.149L565.024 371.087L564.01 374.29C563.784 375.002 563.469 375.563 563.065 375.974C562.658 376.393 562.208 376.656 561.713 376.764C561.216 376.881 560.71 376.858 560.194 376.694C559.589 376.503 559.093 376.15 558.708 375.636C558.328 375.134 558.165 374.49 558.218 373.704L553.647 374.783L554.222 372.968ZM560.191 371.23L559.658 372.912C559.478 373.482 559.485 373.954 559.68 374.329C559.872 374.713 560.208 374.98 560.688 375.133C561.169 375.285 561.587 375.261 561.945 375.061C562.311 374.863 562.585 374.475 562.768 373.897L563.301 372.215L560.191 371.23ZM560.748 384.267L551.579 381.01L552.113 379.506L561.282 382.763L560.748 384.267ZM557.092 390.441L554.433 389.399L553.207 392.527L551.995 392.052L553.221 388.924L550.445 387.836L549.065 391.355L547.853 390.88L549.815 385.875L558.887 389.43L556.925 394.436L555.713 393.961L557.092 390.441ZM552.387 405.21L551.193 404.691L552.227 402.316L544.5 398.95L545.138 397.487L552.864 400.853L553.904 398.465L555.098 398.985L552.387 405.21ZM540.767 411.754L542.552 408.092L541.072 406.592L541.802 405.095L549.033 412.498L548.223 414.159L537.937 413.023L538.673 411.512L540.767 411.754ZM542.133 411.922L546.891 412.482L543.526 409.066L542.133 411.922ZM533.467 421.571L537.956 421.462L538.538 420.393L535.119 418.533L535.882 417.131L544.429 421.78L542.824 424.732C542.467 425.387 542.051 425.878 541.576 426.205C541.097 426.539 540.605 426.712 540.099 426.724C539.589 426.744 539.096 426.624 538.62 426.366C538.063 426.062 537.643 425.622 537.363 425.044C537.086 424.479 537.048 423.816 537.25 423.054L532.557 423.243L533.467 421.571ZM539.657 421.001L538.814 422.551C538.529 423.076 538.446 423.54 538.566 423.946C538.681 424.359 538.96 424.686 539.403 424.927C539.845 425.168 540.261 425.224 540.65 425.095C541.047 424.971 541.39 424.642 541.68 424.109L542.523 422.56L539.657 421.001ZM534.762 438.779L531.109 432.822L528.086 431.002L528.909 429.635L531.932 431.454L538.914 431.882L537.997 433.405L532.744 432.874L535.672 437.268L534.762 438.779ZM521.619 450.217C521.244 450.593 520.765 450.8 520.182 450.839C519.599 450.877 519.069 450.731 518.594 450.401C518.188 450.119 517.894 449.756 517.714 449.312C517.535 448.882 517.489 448.401 517.574 447.869C517.667 447.343 517.897 446.815 518.264 446.286L520.483 443.089L528.476 448.638L526.36 451.685C525.982 452.23 525.566 452.633 525.11 452.897C524.655 453.16 524.201 453.282 523.748 453.263C523.303 453.25 522.889 453.11 522.505 452.844C522.045 452.524 521.747 452.136 521.611 451.677C521.474 451.219 521.477 450.732 521.619 450.217ZM524.208 447.617L523.082 449.239C522.784 449.668 522.648 450.068 522.675 450.439C522.704 450.823 522.903 451.142 523.271 451.398C523.631 451.648 523.996 451.72 524.366 451.613C524.738 451.519 525.073 451.257 525.371 450.828L526.496 449.206L524.208 447.617ZM519.413 446.913C519.105 447.358 518.97 447.781 519.009 448.183C519.048 448.585 519.259 448.92 519.642 449.186C520.033 449.457 520.437 449.539 520.853 449.43C521.27 449.321 521.632 449.045 521.941 448.6L523.138 446.875L520.643 445.142L519.413 446.913ZM513.739 454.888L511.764 457.519L510.734 456.746L513.667 452.839L521.448 458.68L520.49 459.957L513.739 454.888ZM513.612 466.804L511.392 465.007L509.278 467.619L508.266 466.8L510.38 464.188L508.062 462.312L505.684 465.25L504.671 464.431L508.054 460.252L515.628 466.383L512.246 470.561L511.234 469.742L513.612 466.804ZM496.182 474.324L497.237 473.127L505.863 474.324L500.41 469.522L501.465 468.324L508.778 474.763L507.723 475.961L499.107 474.773L504.55 479.565L503.495 480.763L496.182 474.324ZM417.294 535.65L418.702 534.899L426.358 539.051L422.939 532.639L424.347 531.888L428.932 540.486L427.524 541.237L419.874 537.098L423.287 543.497L421.878 544.248L417.294 535.65ZM408.649 539.842C409.468 539.456 410.313 539.29 411.184 539.343C412.051 539.409 412.848 539.688 413.576 540.181C414.299 540.686 414.864 541.369 415.27 542.23C415.676 543.091 415.842 543.957 415.767 544.828C415.685 545.703 415.391 546.492 414.886 547.194C414.377 547.909 413.713 548.459 412.894 548.845C412.067 549.236 411.22 549.398 410.353 549.332C409.482 549.278 408.686 549.003 407.967 548.507C407.248 548.01 406.685 547.331 406.279 546.47C405.873 545.609 405.705 544.739 405.776 543.859C405.85 542.988 406.142 542.196 406.651 541.481C407.156 540.779 407.822 540.232 408.649 539.842ZM409.24 541.096C408.658 541.371 408.2 541.746 407.868 542.223C407.539 542.708 407.364 543.255 407.341 543.864C407.315 544.486 407.454 545.121 407.761 545.771C408.067 546.421 408.467 546.929 408.96 547.296C409.444 547.666 409.975 547.874 410.555 547.921C411.134 547.968 411.715 547.854 412.297 547.579C412.88 547.304 413.337 546.929 413.67 546.452C414.002 545.976 414.184 545.431 414.215 544.818C414.237 544.209 414.095 543.579 413.788 542.929C413.482 542.279 413.085 541.765 412.596 541.386C412.104 541.02 411.566 540.809 410.983 540.754C410.403 540.707 409.823 540.821 409.24 541.096ZM392.582 547.039L394.057 546.429L401.27 551.311L398.495 544.596L399.97 543.986L403.691 552.992L402.216 553.601L395.009 548.733L397.778 555.435L396.303 556.045L392.582 547.039ZM376.96 560.069C377.351 560.451 377.797 560.687 378.299 560.777C378.803 560.876 379.335 560.834 379.893 560.65C380.505 560.448 381.005 560.131 381.393 559.698C381.781 559.266 382.029 558.751 382.137 558.156C382.236 557.563 382.177 556.934 381.957 556.269C381.738 555.604 381.411 555.059 380.976 554.632C380.534 554.217 380.029 553.952 379.46 553.835C378.89 553.718 378.3 553.76 377.688 553.962C376.864 554.233 376.271 554.684 375.909 555.315C375.546 555.945 375.438 556.674 375.583 557.501L379.053 556.357L379.452 557.567L374.359 559.246L373.969 558.062C373.83 557.312 373.869 556.567 374.087 555.827C374.296 555.09 374.673 554.43 375.218 553.847C375.757 553.276 376.43 552.858 377.237 552.592C378.106 552.306 378.965 552.244 379.814 552.406C380.666 552.577 381.424 552.951 382.086 553.529C382.739 554.11 383.215 554.852 383.513 555.756C383.811 556.66 383.87 557.54 383.69 558.395C383.501 559.254 383.114 560 382.527 560.636C381.935 561.283 381.209 561.749 380.349 562.032C379.365 562.357 378.412 562.401 377.489 562.165C376.56 561.94 375.776 561.442 375.138 560.669L376.96 560.069ZM360.918 567.66L358.366 558.271L359.906 557.852L361.654 564.283L362.77 557.074L363.837 556.784L368.463 562.432L366.715 556.001L368.255 555.583L370.807 564.972L369.145 565.424L363.848 558.957L362.566 567.212L360.918 567.66ZM349 560.413C349.885 560.222 350.745 560.252 351.582 560.501C352.412 560.761 353.125 561.214 353.722 561.858C354.312 562.514 354.708 563.307 354.908 564.238C355.109 565.169 355.074 566.05 354.805 566.881C354.526 567.715 354.062 568.416 353.411 568.986C352.753 569.567 351.982 569.953 351.097 570.144C350.203 570.336 349.341 570.302 348.512 570.042C347.675 569.793 346.963 569.345 346.374 568.698C345.786 568.052 345.392 567.263 345.191 566.332C344.991 565.402 345.024 564.516 345.292 563.676C345.561 562.844 346.025 562.138 346.683 561.557C347.333 560.987 348.106 560.606 349 560.413ZM349.292 561.768C348.662 561.904 348.132 562.166 347.7 562.555C347.27 562.953 346.975 563.446 346.816 564.035C346.649 564.634 346.641 565.285 346.793 565.987C346.944 566.69 347.218 567.275 347.615 567.743C348.003 568.214 348.474 568.537 349.027 568.714C349.581 568.89 350.173 568.911 350.802 568.775C351.432 568.639 351.962 568.377 352.394 567.988C352.826 567.599 353.126 567.109 353.295 566.519C353.454 565.931 353.458 565.286 353.307 564.583C353.156 563.881 352.885 563.29 352.495 562.81C352.098 562.342 351.622 562.015 351.066 561.829C350.513 561.653 349.921 561.632 349.292 561.768ZM334.188 568.393C334.319 569.336 334.219 570.212 333.888 571.021C333.548 571.832 333.033 572.497 332.342 573.017C331.642 573.547 330.845 573.874 329.948 573.999C328.922 574.141 327.976 574.013 327.11 573.615C326.237 573.227 325.555 572.596 325.067 571.721L326.967 571.458C327.287 571.932 327.686 572.263 328.164 572.451C328.643 572.639 329.173 572.693 329.755 572.612C330.393 572.523 330.942 572.301 331.402 571.945C331.861 571.59 332.197 571.124 332.409 570.548C332.612 569.973 332.664 569.33 332.566 568.618C332.467 567.906 332.242 567.301 331.89 566.804C331.529 566.307 331.078 565.946 330.538 565.719C329.999 565.502 329.411 565.437 328.773 565.526C328.191 565.606 327.695 565.802 327.286 566.113C326.876 566.425 326.582 566.852 326.403 567.395L324.503 567.658C324.736 566.684 325.219 565.891 325.955 565.28C326.68 564.671 327.556 564.295 328.583 564.153C329.489 564.027 330.345 564.12 331.151 564.433C331.959 564.754 332.637 565.258 333.184 565.946C333.723 566.634 334.057 567.45 334.188 568.393ZM318.434 574.049L318.159 571.207L314.815 571.53L314.69 570.234L318.034 569.911L317.747 566.943L313.985 567.306L313.86 566.01L319.211 565.493L320.148 575.192L314.797 575.709L314.671 574.413L318.434 574.049ZM303.788 566.717L306.23 570.485L307.447 570.421L307.241 566.534L308.835 566.45L309.349 576.166L305.994 576.344C305.248 576.383 304.612 576.286 304.086 576.052C303.55 575.819 303.145 575.49 302.87 575.065C302.586 574.641 302.429 574.159 302.401 573.618C302.367 572.984 302.523 572.397 302.868 571.855C303.205 571.323 303.75 570.944 304.504 570.717L301.886 566.818L303.788 566.717ZM307.514 571.693L305.753 571.786C305.156 571.818 304.717 571.991 304.434 572.305C304.142 572.619 304.01 573.028 304.037 573.532C304.063 574.035 304.233 574.418 304.546 574.682C304.86 574.955 305.319 575.076 305.925 575.044L307.687 574.95L307.514 571.693ZM290.781 576.86L290.762 575.558L293.352 575.521L293.23 567.094L294.826 567.071L294.948 575.498L297.551 575.46L297.57 576.762L290.781 576.86ZM284.188 576.868L284.35 567.14L285.946 567.166L285.783 576.895L284.188 576.868ZM272.987 576.462L273.05 575.162L277.175 575.361L277.314 572.495L274.098 572.339L274.16 571.039L277.377 571.194L277.582 566.943L279.176 567.02L278.706 576.739L272.987 576.462ZM266.56 576.07L267.315 566.369L268.906 566.493L268.151 576.194L266.56 576.07ZM259.675 574.163L259.978 571.323L256.637 570.966L256.775 569.671L260.117 570.028L260.433 567.063L256.674 566.662L256.812 565.367L262.158 565.938L261.124 575.627L255.778 575.056L255.917 573.761L259.675 574.163ZM248.646 564.214C249.292 564.311 249.857 564.509 250.34 564.808C250.822 565.117 251.18 565.501 251.413 565.96C251.646 566.42 251.721 566.927 251.637 567.481L249.948 567.227C249.974 566.806 249.864 566.44 249.618 566.129C249.363 565.817 248.972 565.622 248.446 565.543C247.901 565.461 247.458 565.526 247.114 565.739C246.769 565.961 246.566 566.28 246.503 566.695C246.455 567.018 246.512 567.295 246.675 567.528C246.829 567.758 247.041 567.951 247.311 568.105C247.571 568.257 247.941 568.435 248.42 568.639C249.022 568.9 249.509 569.143 249.881 569.369C250.243 569.602 250.535 569.92 250.758 570.321C250.98 570.723 251.047 571.224 250.956 571.824C250.873 572.377 250.662 572.841 250.323 573.215C249.983 573.589 249.548 573.849 249.016 573.995C248.484 574.142 247.891 574.166 247.236 574.068C246.303 573.927 245.577 573.578 245.057 573.018C244.527 572.467 244.29 571.78 244.348 570.958L246.092 571.22C246.067 571.575 246.188 571.9 246.455 572.195C246.722 572.49 247.105 572.675 247.604 572.75C248.056 572.818 248.442 572.758 248.763 572.57C249.084 572.382 249.277 572.071 249.342 571.638C249.387 571.342 249.336 571.085 249.189 570.864C249.033 570.652 248.824 570.47 248.564 570.317C248.304 570.165 247.943 569.988 247.483 569.787C246.872 569.516 246.382 569.263 246.011 569.028C245.631 568.791 245.331 568.468 245.109 568.057C244.877 567.654 244.807 567.148 244.899 566.539C244.972 566.049 245.175 565.608 245.508 565.215C245.832 564.82 246.268 564.526 246.815 564.335C247.353 564.152 247.963 564.111 248.646 564.214ZM156.234 539.407C155.771 540.238 155.163 540.877 154.412 541.324C153.653 541.766 152.841 541.987 151.976 541.986C151.098 541.988 150.264 541.769 149.473 541.329C148.568 540.824 147.89 540.153 147.439 539.313C146.975 538.478 146.811 537.564 146.948 536.571L148.623 537.505C148.593 538.076 148.713 538.581 148.981 539.019C149.25 539.457 149.641 539.819 150.155 540.106C150.717 540.419 151.289 540.572 151.87 540.565C152.451 540.557 153 540.388 153.516 540.056C154.024 539.719 154.453 539.237 154.803 538.609C155.153 537.981 155.338 537.363 155.356 536.754C155.367 536.14 155.225 535.58 154.93 535.074C154.631 534.576 154.2 534.17 153.637 533.857C153.124 533.57 152.61 533.428 152.096 533.43C151.582 533.432 151.09 533.596 150.62 533.922L148.944 532.988C149.717 532.35 150.58 532.009 151.535 531.964C152.481 531.914 153.407 532.141 154.312 532.646C155.111 533.091 155.739 533.681 156.194 534.416C156.646 535.159 156.883 535.97 156.906 536.848C156.922 537.722 156.698 538.575 156.234 539.407ZM143.989 528.34L141.182 526.623L141.854 525.524L146.022 528.073L140.945 536.374L139.584 535.541L143.989 528.34ZM131.447 530.467L136.769 522.322L138.105 523.195L132.783 531.34L131.447 530.467ZM125.927 514.85L127.231 515.77L126.963 524.475L131.154 518.539L132.457 519.46L126.838 527.42L125.534 526.5L125.793 517.806L121.611 523.73L120.307 522.81L125.927 514.85ZM114.562 518.615L120.451 510.87L121.721 511.836L115.832 519.581L114.562 518.615ZM113.669 511.823C113.065 512.56 112.354 513.081 111.536 513.387C110.71 513.688 109.872 513.761 109.021 513.607C108.157 513.453 107.375 513.09 106.675 512.516C105.873 511.859 105.325 511.078 105.03 510.172C104.721 509.267 104.722 508.339 105.033 507.386L106.516 508.602C106.385 509.159 106.413 509.677 106.6 510.156C106.787 510.635 107.107 511.06 107.562 511.433C108.06 511.841 108.596 512.094 109.169 512.189C109.742 512.285 110.312 512.215 110.879 511.98C111.439 511.739 111.947 511.341 112.402 510.785C112.858 510.229 113.149 509.653 113.276 509.057C113.395 508.455 113.355 507.879 113.154 507.328C112.948 506.785 112.596 506.309 112.098 505.901C111.643 505.528 111.163 505.297 110.656 505.208C110.15 505.119 109.637 505.193 109.116 505.43L107.633 504.214C108.506 503.723 109.417 503.54 110.364 503.665C111.305 503.784 112.175 504.172 112.976 504.829C113.684 505.409 114.197 506.101 114.515 506.905C114.827 507.716 114.917 508.556 114.784 509.425C114.644 510.288 114.273 511.087 113.669 511.823ZM99.9495 496.393L102.971 499.125L104.824 498.12L106.06 499.237L96.9389 504.127L95.5681 502.887L99.5174 493.322L100.764 494.449L99.9495 496.393ZM99.4086 497.659L97.5492 502.074L101.766 499.79L99.4086 497.659ZM94.0962 490.015L91.7447 487.714L92.6455 486.793L96.1378 490.21L89.3329 497.165L88.1922 496.049L94.0962 490.015ZM87.4815 483.418L85.208 481.04L86.139 480.15L89.5154 483.682L82.4823 490.405L81.3794 489.252L87.4815 483.418ZM71.0542 478.005L77.8293 476.293L80.4668 473.95L81.5268 475.143L78.8893 477.487L76.4006 484.023L75.2197 482.694L77.2917 477.838L72.2257 479.324L71.0542 478.005ZM60.0069 464.579L61.0321 463.776L63.5783 467.028L65.8379 465.258L63.8528 462.723L64.8779 461.92L66.8631 464.456L70.214 461.832L71.198 463.088L63.5371 469.087L60.0069 464.579ZM62.3947 451.296C62.921 452.032 63.2357 452.834 63.3389 453.701C63.429 454.566 63.2967 455.4 62.942 456.204C62.5743 457.006 62.0031 457.684 61.2285 458.237C60.4539 458.79 59.6315 459.108 58.7614 459.191C57.8858 459.266 57.0574 459.118 56.2762 458.747C55.4819 458.374 54.8217 457.819 54.2954 457.082C53.7637 456.338 53.4527 455.534 53.3626 454.669C53.2594 453.802 53.3879 452.97 53.7481 452.174C54.1082 451.377 54.6756 450.703 55.4502 450.149C56.2248 449.596 57.051 449.275 57.9287 449.187C58.7989 449.105 59.6311 449.25 60.4253 449.623C61.2065 449.994 61.863 450.552 62.3947 451.296ZM61.267 452.102C60.8926 451.578 60.4412 451.195 59.9128 450.953C59.3768 450.716 58.8072 450.641 58.2039 450.728C57.5877 450.813 56.9872 451.064 56.4024 451.482C55.8176 451.9 55.3891 452.384 55.1168 452.934C54.8391 453.476 54.7291 454.037 54.7866 454.615C54.8442 455.193 55.0602 455.744 55.4345 456.268C55.8089 456.792 56.2603 457.175 56.7887 457.417C57.3171 457.659 57.8856 457.74 58.4943 457.661C59.0975 457.574 59.6915 457.322 60.2763 456.904C60.8611 456.487 61.2961 456.004 61.5814 455.456C61.8537 454.906 61.9648 454.339 61.9149 453.755C61.8573 453.177 61.6413 452.626 61.267 452.102ZM54.028 439.249L51.9692 443.24L52.6288 444.264L55.9007 442.156L56.765 443.498L48.5853 448.767L46.7657 445.942C46.3614 445.315 46.13 444.714 46.0717 444.141C46.0084 443.56 46.0928 443.045 46.3251 442.596C46.5524 442.138 46.8936 441.763 47.3486 441.47C47.8822 441.126 48.4697 440.97 49.1113 441.001C49.74 441.029 50.34 441.314 50.9114 441.856L52.9969 437.648L54.028 439.249ZM51.5578 444.954L50.6025 443.471C50.279 442.969 49.9109 442.673 49.4981 442.583C49.0802 442.486 48.6594 442.574 48.2357 442.847C47.812 443.12 47.5633 443.458 47.4897 443.861C47.4082 444.268 47.5317 444.727 47.8603 445.237L48.8156 446.72L51.5578 444.954ZM36.7927 429.458L45.2116 424.58L46.0118 425.961L40.2457 429.302L47.4997 428.529L48.0542 429.486L43.7831 435.407L49.5491 432.066L50.3493 433.447L41.9303 438.325L41.067 436.835L45.9564 430.054L37.649 430.936L36.7927 429.458ZM33.2838 423.105L38.8033 420.277C39.4595 419.94 39.8664 419.517 40.0242 419.006C40.1777 418.487 40.0969 417.92 39.7819 417.305C39.4627 416.682 39.0497 416.286 38.5429 416.116C38.0319 415.937 37.4483 416.016 36.7921 416.352L31.2726 419.18L30.5448 417.76L36.0394 414.944C36.7454 414.583 37.4222 414.43 38.0697 414.486C38.7173 414.542 39.2935 414.766 39.7982 415.158C40.303 415.549 40.715 416.056 41.0343 416.679C41.3535 417.302 41.5246 417.933 41.5476 418.572C41.5664 419.202 41.4074 419.792 41.0705 420.342C40.7337 420.892 40.2122 421.348 39.5062 421.71L34.0116 424.525L33.2838 423.105ZM35.052 407.806L33.6723 404.819L34.8415 404.279L36.8906 408.714L28.0577 412.795L27.3883 411.346L35.052 407.806ZM28.9374 395.604L30.5031 399.365L32.6075 399.247L33.2477 400.785L22.9123 401.312L22.2021 399.606L29.858 392.643L30.5037 394.194L28.9374 395.604ZM27.9075 396.518L24.3408 399.717L29.1289 399.452L27.9075 396.518ZM16.8367 385.829L18.0593 385.381L18.9499 387.813L26.8639 384.915L27.4128 386.413L19.4988 389.312L20.3942 391.757L19.1716 392.204L16.8367 385.829ZM15.873 379.132L18.5911 378.255L17.5599 375.058L18.799 374.658L19.8303 377.856L22.6684 376.941L21.5082 373.343L22.7474 372.943L24.3974 378.06L15.1237 381.051L13.4736 375.934L14.7128 375.534L15.873 379.132ZM0.133596 278.359C0.177155 277.324 0.415709 276.428 0.849258 275.671C1.27387 274.904 1.86802 274.327 2.63168 273.938C3.38641 273.541 4.25801 273.362 5.24647 273.404C6.23493 273.446 7.08381 273.696 7.79311 274.156C8.50281 274.606 9.037 275.231 9.39569 276.031C9.74545 276.821 9.89855 277.733 9.85499 278.768L9.72137 281.944L-2.27793e-05 281.535L0.133596 278.359ZM8.55414 278.714C8.60202 277.576 8.33098 276.691 7.74103 276.059C7.15109 275.427 6.29661 275.088 5.1776 275.041C4.04926 274.993 3.15529 275.259 2.49568 275.838C1.83606 276.418 1.48232 277.276 1.43444 278.414L1.36793 279.995L8.48763 280.294L8.55414 278.714ZM0.725731 266.615L10.427 267.362L10.3046 268.953L0.603255 268.206L0.725731 266.615ZM2.62692 259.729L5.46707 260.03L5.82066 256.688L7.11543 256.826L6.76184 260.167L9.72728 260.481L10.1251 256.722L11.4198 256.859L10.8541 262.205L1.1642 261.179L1.72995 255.833L3.02472 255.97L2.62692 259.729ZM3.29573 244.198L4.58355 244.389L4.20242 246.951L12.5387 248.191L12.3038 249.77L3.96756 248.53L3.58437 251.105L2.29655 250.914L3.29573 244.198ZM12.8 234.858L12.0362 238.86L13.8578 239.92L13.5454 241.557L4.62773 236.306L4.97418 234.491L15.199 232.893L14.884 234.543L12.8 234.858ZM11.4371 235.054L6.6987 235.76L10.8413 238.176L11.4371 235.054ZM17.2689 223.472L12.9657 224.756L12.6852 225.941L16.4726 226.837L16.1051 228.39L6.63658 226.15L7.41027 222.88C7.5822 222.154 7.85442 221.571 8.22694 221.131C8.6016 220.683 9.03138 220.386 9.51629 220.242C10.0033 220.089 10.5103 220.075 11.0371 220.199C11.6547 220.345 12.1748 220.66 12.5975 221.144C13.0132 221.616 13.2237 222.246 13.2292 223.034L17.7073 221.619L17.2689 223.472ZM11.4454 225.648L11.8516 223.931C11.9892 223.35 11.947 222.879 11.7251 222.52C11.5054 222.151 11.1503 221.909 10.6599 221.793C10.1694 221.677 9.75357 221.732 9.41232 221.958C9.06199 222.182 8.81698 222.59 8.67728 223.18L8.27109 224.897L11.4454 225.648ZM11.4996 207.208L16.5888 211.997L19.9832 212.959L19.5481 214.494L16.1537 213.532L9.30498 214.953L9.78971 213.243L14.9974 212.375L11.0187 208.905L11.4996 207.208ZM25.3222 196.315C25.1029 196.93 24.8 197.447 24.4136 197.864C24.0184 198.278 23.5728 198.555 23.0769 198.696C22.5811 198.836 22.0694 198.812 21.5419 198.624L22.1151 197.015C22.5233 197.121 22.9034 197.083 23.2555 196.901C23.6107 196.711 23.8776 196.365 24.0562 195.864C24.241 195.345 24.262 194.897 24.1192 194.519C23.9676 194.138 23.694 193.877 23.2984 193.736C22.9906 193.627 22.7072 193.63 22.448 193.745C22.1919 193.852 21.9626 194.023 21.7599 194.258C21.5605 194.484 21.3146 194.813 21.0223 195.244C20.6511 195.785 20.319 196.217 20.026 196.538C19.7274 196.848 19.3596 197.074 18.9228 197.215C18.4859 197.357 17.9817 197.326 17.4103 197.122C16.8828 196.934 16.4682 196.638 16.1665 196.233C15.8649 195.829 15.6931 195.351 15.6513 194.801C15.6094 194.251 15.6997 193.664 15.9221 193.04C16.2385 192.152 16.7212 191.507 17.37 191.104C18.0133 190.689 18.7327 190.588 19.5283 190.803L18.9362 192.464C18.5927 192.372 18.2506 192.428 17.9098 192.634C17.5691 192.839 17.3141 193.179 17.145 193.654C16.9915 194.085 16.9761 194.476 17.0987 194.827C17.2214 195.177 17.4894 195.426 17.9026 195.574C18.1839 195.674 18.4467 195.673 18.6908 195.572C18.9293 195.459 19.1483 195.289 19.3478 195.063C19.5473 194.837 19.79 194.517 20.076 194.104C20.4592 193.557 20.8017 193.124 21.1034 192.805C21.4083 192.478 21.7836 192.245 22.2292 192.107C22.6692 191.956 23.1794 191.985 23.7596 192.191C24.2256 192.357 24.6198 192.642 24.9421 193.044C25.2676 193.437 25.4717 193.921 25.5544 194.495C25.6314 195.058 25.554 195.664 25.3222 196.315ZM19.6437 183.336L25.3908 185.667C26.0741 185.944 26.6606 185.976 27.1504 185.761C27.6437 185.539 28.0202 185.107 28.2798 184.467C28.543 183.818 28.5735 183.247 28.3714 182.752C28.1728 182.248 27.7319 181.858 27.0486 181.58L21.3016 179.249L21.9015 177.77L27.6227 180.091C28.3578 180.389 28.9156 180.802 29.2961 181.329C29.6765 181.856 29.8834 182.438 29.9167 183.076C29.9499 183.714 29.835 184.358 29.5719 185.006C29.3087 185.655 28.943 186.197 28.4746 186.631C28.0098 187.057 27.4591 187.322 26.8225 187.426C26.1859 187.531 25.5 187.434 24.7649 187.135L19.0437 184.814L19.6437 183.336ZM29.5022 167.643C29.9523 167.848 30.3285 168.148 30.6309 168.542C30.9333 168.936 31.1054 169.425 31.1473 170.008C31.1807 170.588 31.0309 171.242 30.698 171.973L29.9664 173.578L33.5588 175.215L32.8969 176.668L24.0432 172.632L25.4368 169.575C25.7464 168.895 26.1266 168.376 26.5773 168.017C27.0234 167.646 27.4983 167.437 28.002 167.39C28.5095 167.334 29.0096 167.418 29.5022 167.643ZM29.5133 171.433C29.7649 170.881 29.8295 170.413 29.7071 170.029C29.5762 169.641 29.2814 169.342 28.8228 169.133C27.8546 168.692 27.1209 169.019 26.6215 170.115L25.8899 171.72L28.7816 173.038L29.5133 171.433ZM34.6724 157.145C35.1131 157.369 35.4758 157.685 35.7607 158.093C36.0455 158.5 36.1961 158.995 36.2123 159.58C36.2203 160.16 36.042 160.808 35.6775 161.523L34.8762 163.095L38.3935 164.888L37.6686 166.31L29.0002 161.89L30.5263 158.897C30.8654 158.232 31.268 157.73 31.734 157.391C32.1959 157.04 32.6794 156.852 33.1847 156.826C33.6942 156.793 34.1901 156.899 34.6724 157.145ZM34.5175 160.932C34.7931 160.391 34.8781 159.926 34.7726 159.537C34.6588 159.144 34.3774 158.833 33.9284 158.604C32.9805 158.121 32.2331 158.416 31.6862 159.488L30.885 161.06L33.7163 162.503L34.5175 160.932ZM42.5291 154.145L44.1248 151.268L45.2511 151.893L42.8814 156.166L34.3724 151.446L35.1465 150.051L42.5291 154.145ZM41.0285 142.318L43.4723 143.796L45.2111 140.921L46.3252 141.595L44.5864 144.47L47.138 146.013L49.0942 142.779L50.2083 143.452L47.4262 148.052L39.0884 143.01L41.8706 138.41L42.9847 139.084L41.0285 142.318ZM50.4502 125.236L58.5449 130.634L57.6593 131.962L52.1153 128.265L56.0124 134.431L55.3988 135.352L48.2001 134.135L53.7441 137.832L52.8585 139.16L44.7638 133.761L45.7193 132.329L53.9624 133.72L49.5025 126.656L50.4502 125.236ZM55.6203 120.055L57.9165 121.753L59.9145 119.052L60.9613 119.826L58.9632 122.527L61.3607 124.301L63.6085 121.262L64.6553 122.036L61.4584 126.358L53.6244 120.564L56.8213 116.242L57.8681 117.016L55.6203 120.055ZM72.6998 111.777L71.6994 113.021L63.028 112.208L68.6895 116.762L67.6891 118.006L60.0968 111.898L61.0972 110.655L69.7577 111.459L64.1071 106.913L65.1075 105.67L72.6998 111.777ZM72.7993 96.6347L73.7787 97.4926L72.0721 99.4408L78.4117 104.994L77.3601 106.195L71.0205 100.641L69.3046 102.6L68.3252 101.742L72.7993 96.6347ZM162.009 28.9354L166.383 37.627L164.957 38.3444L161.962 32.3916L162.306 39.6785L161.318 40.1757L155.659 35.5633L158.654 41.5161L157.228 42.2335L152.855 33.5419L154.393 32.7678L160.874 38.048L160.483 29.7031L162.009 28.9354ZM175.59 31.1582L171.863 32.8053L172.027 34.9066L170.503 35.5801L169.752 25.2586L171.442 24.5115L178.57 32.0143L177.034 32.6935L175.59 31.1582ZM174.654 30.1485L171.378 26.6521L171.747 31.4333L174.654 30.1485ZM182.239 19.9811C183.205 19.6068 184.122 19.4668 184.989 19.5611C185.862 19.6434 186.629 19.9568 187.29 20.5013C187.957 21.0337 188.469 21.7611 188.826 22.6837C189.184 23.6062 189.294 24.4844 189.156 25.3183C189.028 26.1489 188.669 26.8886 188.079 27.5373C187.495 28.174 186.72 28.6795 185.754 29.0538L182.791 30.202L179.276 21.1293L182.239 19.9811ZM185.284 27.8398C186.346 27.4284 187.048 26.8259 187.391 26.0323C187.734 25.2388 187.704 24.3198 187.299 23.2754C186.891 22.2224 186.289 21.5096 185.494 21.137C184.699 20.7643 183.771 20.7837 182.709 21.1951L181.234 21.7667L183.809 28.4113L185.284 27.8398ZM193.733 17.0387L194.65 19.7435L197.832 18.665L198.25 19.8981L195.068 20.9766L196.025 23.8008L199.605 22.5874L200.023 23.8205L194.932 25.5462L191.804 16.3179L196.895 14.5922L197.313 15.8253L193.733 17.0387ZM210.17 10.4961L212.78 19.8694L211.242 20.2976L208.632 10.9243L210.17 10.4961ZM225.548 16.6525L223.996 17.0249L217.631 11.0799L219.327 18.1453L217.775 18.5177L215.501 9.04265L217.053 8.67026L223.415 14.6017L221.723 7.54982L223.275 7.17743L225.548 16.6525ZM237.141 4.32768L238.159 10.4456C238.28 11.173 238.56 11.6894 238.998 11.9949C239.446 12.2988 240.011 12.3941 240.692 12.2808C241.383 12.166 241.886 11.893 242.202 11.4619C242.528 11.0293 242.63 10.4494 242.509 9.72204L241.491 3.60409L243.066 3.34222L244.079 9.43255C244.209 10.2151 244.149 10.9064 243.899 11.5062C243.648 12.1061 243.26 12.587 242.733 12.9489C242.207 13.3109 241.599 13.5493 240.908 13.6641C240.218 13.779 239.565 13.7504 238.949 13.5783C238.343 13.4048 237.83 13.0739 237.408 12.5859C236.986 12.0978 236.71 11.4625 236.58 10.6799L235.567 4.58955L237.141 4.32768ZM252.949 11.8423C252.3 11.9224 251.703 11.8833 251.157 11.725C250.61 11.5575 250.162 11.2836 249.814 10.9034C249.466 10.5232 249.258 10.0552 249.189 9.49937L250.884 9.29007C250.973 9.70233 251.177 10.025 251.498 10.2582C251.827 10.4902 252.256 10.5737 252.784 10.5085C253.331 10.441 253.741 10.2587 254.014 9.96158C254.287 9.65521 254.397 9.29361 254.346 8.87677C254.306 8.55257 254.176 8.30058 253.956 8.12082C253.746 7.9399 253.49 7.8116 253.189 7.7359C252.898 7.65906 252.494 7.58667 251.978 7.51876C251.327 7.4298 250.792 7.32654 250.374 7.20899C249.963 7.08103 249.596 6.85358 249.274 6.52663C248.951 6.19969 248.753 5.73517 248.678 5.13307C248.61 4.5773 248.689 4.07383 248.915 3.62269C249.141 3.17154 249.491 2.80393 249.964 2.51985C250.437 2.23578 251.002 2.05314 251.659 1.97193C252.595 1.85642 253.388 1.99826 254.04 2.39748C254.699 2.78628 255.111 3.38425 255.277 4.19139L253.526 4.40756C253.455 4.059 253.251 3.77854 252.914 3.56618C252.578 3.35382 252.159 3.27852 251.659 3.34029C251.205 3.39633 250.849 3.55787 250.59 3.8249C250.332 4.09193 250.229 4.44312 250.283 4.87848C250.32 5.1749 250.438 5.4095 250.638 5.5823C250.846 5.74468 251.096 5.8643 251.388 5.94114C251.679 6.01798 252.074 6.09151 252.572 6.16171C253.233 6.25879 253.773 6.37074 254.193 6.49755C254.622 6.62323 254.999 6.85417 255.323 7.19037C255.654 7.51617 255.858 7.98475 255.933 8.59611C255.994 9.08705 255.917 9.56678 255.702 10.0353C255.496 10.5027 255.155 10.9022 254.679 11.2337C254.211 11.5548 253.634 11.7577 252.949 11.8423ZM266.897 8.34052L262.835 8.65348L262.29 10.6894L260.629 10.8174L263.356 0.834363L265.198 0.692403L269.422 10.1398L267.747 10.2689L266.897 8.34052ZM266.35 7.07679L264.425 2.68967L263.181 7.32091L266.35 7.07679Z" fill="#84C12F"/>
</svg>
