<svg xmlns="http://www.w3.org/2000/svg" width="301" height="163" viewBox="0 0 301 163" fill="none">
  <path d="M-8.15392e-05 156.691C-8.15392e-05 159.637 2.38773 162.024 5.33325 162.024C8.27877 162.024 10.6666 159.637 10.6666 156.691C10.6666 153.745 8.27877 151.358 5.33325 151.358C2.38773 151.358 -8.15392e-05 153.745 -8.15392e-05 156.691ZM107.058 5.33301V4.33301L106.525 4.33301L106.228 4.7752L107.058 5.33301ZM289.642 5.33301C289.642 8.27853 292.03 10.6663 294.975 10.6663C297.921 10.6663 300.309 8.27853 300.309 5.33301C300.309 2.38749 297.921 -0.00032568 294.975 -0.00032568C292.03 -0.00032568 289.642 2.38749 289.642 5.33301ZM5.33325 156.691L6.16322 157.249L107.888 5.89082L107.058 5.33301L106.228 4.7752L4.50328 156.133L5.33325 156.691ZM107.058 5.33301V6.33301L294.975 6.33301V5.33301V4.33301L107.058 4.33301V5.33301Z" fill="#002C4E"/>
</svg>
