<svg width="576" height="578" viewBox="0 0 576 578" fill="none" xmlns="http://www.w3.org/2000/svg">
<path d="M447.281 47.7565L446.568 48.8455L443.113 46.582L441.54 48.9826L444.234 50.7474L443.52 51.8364L440.827 50.0717L438.494 53.6315L437.159 52.7568L442.492 44.6183L447.281 47.7565ZM452.679 51.429L449.075 56.4763C448.647 57.0763 448.48 57.6394 448.574 58.1656C448.676 58.6973 449.008 59.1638 449.57 59.5651C450.14 59.9719 450.689 60.1346 451.218 60.0531C451.754 59.9771 452.236 59.6391 452.664 59.039L456.268 53.9918L457.567 54.9193L453.979 59.9437C453.518 60.5894 452.987 61.0359 452.386 61.2833C451.785 61.5308 451.171 61.5965 450.542 61.4805C449.914 61.3645 449.315 61.1031 448.746 60.6963C448.176 60.2895 447.734 59.8079 447.421 59.2513C447.115 58.7002 446.985 58.1029 447.031 57.4595C447.078 56.8161 447.332 56.1716 447.793 55.526L451.381 50.5015L452.679 51.429ZM458.136 65.8238L460.738 67.8365L459.95 68.8554L456.085 65.8663L462.038 58.1695L463.3 59.1458L458.136 65.8238ZM465.471 71.6081L468.006 73.7057L467.185 74.6979L463.42 71.5828L469.624 64.0868L470.853 65.1044L465.471 71.6081ZM484.558 77.0802C485.313 77.7892 485.836 78.5551 486.126 79.3779C486.429 80.2003 486.479 81.0274 486.274 81.8592C486.082 82.6907 485.648 83.4671 484.971 84.1884C484.294 84.9098 483.55 85.389 482.738 85.626C481.934 85.8694 481.112 85.8657 480.272 85.615C479.445 85.3638 478.654 84.8838 477.899 84.1748L475.582 81.9998L482.24 74.9053L484.558 77.0802ZM478.79 83.2254C479.62 84.0047 480.467 84.3773 481.331 84.3434C482.195 84.3094 483.01 83.8841 483.777 83.0675C484.549 82.244 484.932 81.3933 484.924 80.5154C484.916 79.6374 484.497 78.8088 483.667 78.0296L482.513 76.9469L477.636 82.1428L478.79 83.2254ZM493.082 85.2298L486.156 92.0642L485.035 90.9282L491.961 84.0938L493.082 85.2298ZM491.874 98.1897C491.43 97.7104 491.113 97.2029 490.922 96.6672C490.738 96.1252 490.699 95.6019 490.804 95.0974C490.909 94.5929 491.167 94.1504 491.578 93.7699L492.739 95.023C492.456 95.3358 492.313 95.6902 492.311 96.0864C492.316 96.4895 492.499 96.8862 492.86 97.2765C493.234 97.6805 493.622 97.9067 494.023 97.9551C494.431 97.9971 494.789 97.8754 495.097 97.59C495.337 97.3681 495.465 97.1154 495.483 96.8321C495.507 96.5556 495.461 96.2732 495.347 95.9848C495.239 95.7033 495.061 95.3332 494.815 94.8747C494.507 94.2949 494.278 93.8007 494.129 93.3921C493.992 92.984 493.963 92.5536 494.039 92.1008C494.116 91.648 494.377 91.2155 494.822 90.8033C495.233 90.4228 495.688 90.1925 496.186 90.1125C496.685 90.0326 497.187 90.1014 497.694 90.3189C498.201 90.5365 498.679 90.8884 499.13 91.3745C499.77 92.0661 500.119 92.7928 500.175 93.5545C500.245 94.3167 500.001 95.0008 499.443 95.6068L498.244 94.3126C498.485 94.0511 498.594 93.7217 498.569 93.3245C498.545 92.9273 498.362 92.5438 498.019 92.1741C497.708 91.8385 497.369 91.6439 497.001 91.5902C496.633 91.5365 496.289 91.6586 495.967 91.9567C495.748 92.1597 495.627 92.3928 495.603 92.6561C495.593 92.9199 495.642 93.1925 495.75 93.474C495.858 93.7556 496.029 94.1188 496.263 94.5636C496.571 95.1566 496.796 95.6606 496.938 96.0755C497.087 96.4973 497.12 96.9378 497.036 97.3969C496.966 97.8565 496.705 98.2956 496.253 98.7142C495.89 99.0503 495.455 99.2681 494.95 99.3676C494.45 99.474 493.927 99.4308 493.38 99.2381C492.845 99.0459 492.344 98.6964 491.874 98.1897ZM500.953 100.699C501.68 100.085 502.474 99.7008 503.334 99.5477C504.201 99.4018 505.039 99.4819 505.847 99.788C506.669 100.095 507.373 100.595 507.957 101.286C508.626 102.077 509.024 102.945 509.15 103.889C509.289 104.835 509.12 105.748 508.642 106.628L507.404 105.164C507.633 104.64 507.7 104.125 507.603 103.621C507.506 103.116 507.268 102.639 506.888 102.19C506.472 101.698 505.991 101.353 505.445 101.155C504.899 100.957 504.325 100.922 503.725 101.051C503.131 101.186 502.559 101.486 502.011 101.95C501.462 102.414 501.071 102.928 500.838 103.491C500.612 104.062 500.547 104.636 500.645 105.213C500.749 105.785 501.009 106.317 501.425 106.809C501.805 107.258 502.235 107.572 502.717 107.751C503.199 107.931 503.717 107.951 504.271 107.812L505.51 109.277C504.562 109.601 503.634 109.616 502.724 109.322C501.821 109.034 501.035 108.495 500.366 107.703C499.776 107.005 499.397 106.231 499.23 105.383C499.069 104.528 499.133 103.686 499.421 102.856C499.716 102.033 500.226 101.314 500.953 100.699ZM508.507 115.375L510.528 117.972L509.511 118.763L506.511 114.907L514.19 108.931L515.17 110.191L508.507 115.375ZM514.676 125.949C514.151 125.211 513.839 124.408 513.738 123.541C513.65 122.676 513.785 121.842 514.141 121.039C514.511 120.238 515.084 119.562 515.861 119.011C516.637 118.459 517.46 118.144 518.33 118.063C519.206 117.991 520.034 118.141 520.814 118.514C521.607 118.889 522.266 119.446 522.79 120.184C523.32 120.93 523.629 121.735 523.717 122.6C523.818 123.467 523.687 124.299 523.325 125.094C522.962 125.889 522.393 126.563 521.617 127.114C520.841 127.666 520.014 127.984 519.136 128.07C518.265 128.15 517.434 128.002 516.64 127.627C515.86 127.254 515.205 126.694 514.676 125.949ZM515.805 125.146C516.178 125.671 516.629 126.055 517.156 126.299C517.692 126.536 518.261 126.613 518.865 126.528C519.481 126.445 520.082 126.195 520.668 125.779C521.254 125.363 521.684 124.88 521.958 124.33C522.237 123.789 522.349 123.229 522.293 122.65C522.237 122.072 522.022 121.52 521.649 120.995C521.276 120.47 520.826 120.086 520.298 119.842C519.77 119.599 519.202 119.516 518.593 119.594C517.99 119.679 517.395 119.93 516.809 120.346C516.223 120.762 515.787 121.244 515.5 121.791C515.226 122.34 515.114 122.907 515.162 123.491C515.218 124.069 515.432 124.621 515.805 125.146ZM521.947 136.504C521.592 135.955 521.366 135.401 521.271 134.84C521.183 134.275 521.234 133.752 521.424 133.273C521.615 132.795 521.945 132.403 522.415 132.099L523.343 133.533C523.011 133.792 522.809 134.117 522.739 134.507C522.674 134.905 522.786 135.327 523.075 135.774C523.374 136.236 523.717 136.526 524.104 136.642C524.498 136.754 524.872 136.696 525.224 136.468C525.499 136.29 525.669 136.063 525.735 135.787C525.806 135.519 525.81 135.233 525.747 134.929C525.689 134.633 525.578 134.238 525.414 133.744C525.21 133.12 525.07 132.594 524.993 132.166C524.929 131.74 524.974 131.311 525.127 130.878C525.281 130.445 525.612 130.064 526.122 129.735C526.592 129.431 527.079 129.282 527.584 129.289C528.089 129.296 528.572 129.45 529.034 129.752C529.496 130.053 529.906 130.482 530.266 131.039C530.778 131.83 530.997 132.606 530.921 133.366C530.859 134.129 530.501 134.761 529.847 135.262L528.889 133.781C529.171 133.565 529.335 133.259 529.379 132.863C529.423 132.468 529.309 132.058 529.035 131.635C528.787 131.251 528.486 131.001 528.133 130.885C527.78 130.769 527.419 130.83 527.051 131.068C526.8 131.23 526.64 131.439 526.572 131.694C526.517 131.952 526.518 132.229 526.576 132.525C526.634 132.821 526.74 133.209 526.894 133.687C527.095 134.324 527.23 134.859 527.299 135.293C527.373 135.734 527.329 136.173 527.168 136.611C527.02 137.052 526.687 137.439 526.169 137.774C525.754 138.043 525.289 138.182 524.773 138.193C524.263 138.212 523.755 138.08 523.249 137.796C522.756 137.514 522.322 137.084 521.947 136.504ZM535.706 139.916L530.352 143.047C529.716 143.42 529.333 143.865 529.204 144.384C529.08 144.911 529.192 145.472 529.541 146.068C529.894 146.673 530.328 147.046 530.844 147.188C531.364 147.338 531.942 147.226 532.579 146.854L537.932 143.723L538.738 145.101L533.409 148.218C532.724 148.618 532.057 148.808 531.407 148.788C530.757 148.768 530.169 148.577 529.644 148.214C529.118 147.851 528.678 147.367 528.325 146.763C527.972 146.159 527.766 145.539 527.707 144.902C527.653 144.274 527.779 143.676 528.085 143.108C528.391 142.54 528.886 142.056 529.571 141.655L534.9 138.539L535.706 139.916ZM535.256 158.958L537.656 155.162L537.088 154.084L533.645 155.898L532.901 154.486L541.51 149.952L543.076 152.924C543.424 153.585 543.602 154.203 543.61 154.779C543.622 155.364 543.493 155.869 543.222 156.297C542.956 156.732 542.583 157.076 542.104 157.329C541.543 157.624 540.944 157.729 540.307 157.642C539.684 157.559 539.111 157.223 538.589 156.633L536.144 160.642L535.256 158.958ZM538.216 153.491L539.038 155.051C539.316 155.58 539.657 155.907 540.06 156.032C540.468 156.165 540.895 156.114 541.341 155.879C541.787 155.645 542.064 155.33 542.173 154.935C542.289 154.536 542.207 154.068 541.924 153.531L541.102 151.971L538.216 153.491ZM546.726 162.852L544.15 164.084L545.6 167.115L544.425 167.677L542.975 164.646L540.285 165.933L541.916 169.343L540.742 169.904L538.422 165.055L547.212 160.85L549.532 165.7L548.357 166.262L546.726 162.852ZM547.345 181.63L548.581 184.678L547.388 185.162L545.551 180.635L554.567 176.977L555.167 178.456L547.345 181.63ZM552.873 194.107L551.488 190.276L549.381 190.293L548.814 188.727L559.163 188.692L559.791 190.43L551.813 197.021L551.242 195.441L552.873 194.107ZM553.945 193.243L557.66 190.218L552.865 190.254L553.945 193.243ZM559.636 204.865C559.7 205.392 559.567 205.897 559.237 206.379C558.907 206.861 558.466 207.188 557.913 207.358C557.44 207.504 556.973 207.511 556.513 207.379C556.064 207.253 555.657 206.993 555.291 206.598C554.934 206.2 554.661 205.693 554.472 205.078L553.327 201.358L562.626 198.495L563.717 202.041C563.912 202.674 563.973 203.251 563.899 203.772C563.825 204.293 563.641 204.726 563.346 205.07C563.061 205.412 562.695 205.652 562.249 205.789C561.714 205.954 561.224 205.948 560.779 205.773C560.335 205.597 559.953 205.294 559.636 204.865ZM559.188 201.223L559.769 203.11C559.923 203.609 560.154 203.963 560.462 204.171C560.782 204.385 561.156 204.426 561.584 204.294C562.003 204.165 562.285 203.922 562.429 203.566C562.585 203.215 562.586 202.79 562.432 202.29L561.851 200.404L559.188 201.223ZM555.675 204.561C555.834 205.078 556.084 205.445 556.424 205.663C556.765 205.88 557.158 205.921 557.604 205.783C558.059 205.643 558.372 205.376 558.544 204.981C558.715 204.587 558.721 204.131 558.562 203.613L557.944 201.606L555.04 202.5L555.675 204.561ZM565.356 212.109L562.597 212.844L563.461 216.091L562.203 216.426L561.338 213.179L558.457 213.946L559.43 217.599L558.172 217.934L556.788 212.739L566.204 210.231L567.587 215.426L566.329 215.761L565.356 212.109ZM561.045 224.087L561.778 227.294L560.522 227.581L559.434 222.818L568.919 220.649L569.275 222.205L561.045 224.087ZM571.331 231.566L561.786 233.456L561.476 231.89L571.021 230L571.331 231.566ZM564.036 246.429L563.781 244.853L570.183 238.949L563.011 240.113L562.755 238.538L572.374 236.977L572.629 238.552L566.24 244.454L573.399 243.292L573.654 244.868L564.036 246.429ZM572.489 257.766C572.943 257.461 573.265 257.072 573.456 256.6C573.657 256.127 573.724 255.598 573.658 255.014C573.586 254.374 573.378 253.819 573.034 253.351C572.69 252.883 572.238 252.534 571.677 252.306C571.117 252.088 570.489 252.017 569.793 252.096C569.098 252.174 568.497 252.382 567.99 252.721C567.494 253.068 567.13 253.508 566.899 254.042C566.668 254.575 566.588 255.161 566.66 255.801C566.757 256.664 567.077 257.337 567.62 257.821C568.163 258.304 568.854 258.56 569.693 258.588L569.284 254.957L570.55 254.814L571.15 260.142L569.912 260.282C569.149 260.264 568.428 260.073 567.748 259.708C567.069 259.353 566.501 258.848 566.042 258.195C565.594 257.551 565.322 256.807 565.227 255.963C565.125 255.054 565.24 254.2 565.573 253.402C565.915 252.603 566.437 251.938 567.138 251.408C567.84 250.888 568.664 250.574 569.61 250.468C570.556 250.361 571.429 250.484 572.23 250.835C573.031 251.196 573.683 251.728 574.185 252.433C574.697 253.145 575.004 253.951 575.105 254.851C575.221 255.88 575.069 256.823 574.648 257.678C574.238 258.541 573.59 259.206 572.703 259.672L572.489 257.766ZM559.702 353.333L560.057 351.777L568.211 348.715L561.127 347.096L561.483 345.54L570.982 347.711L570.626 349.267L562.487 352.332L569.556 353.948L569.201 355.504L559.702 353.333ZM557.208 362.612C557.452 361.74 557.88 360.992 558.491 360.369C559.108 359.756 559.841 359.337 560.69 359.109C561.545 358.893 562.431 358.914 563.348 359.171C564.265 359.427 565.028 359.869 565.637 360.495C566.244 361.131 566.648 361.869 566.849 362.71C567.056 363.563 567.037 364.425 566.793 365.297C566.546 366.178 566.114 366.924 565.496 367.537C564.886 368.16 564.157 368.581 563.311 368.8C562.464 369.018 561.583 368.999 560.666 368.742C559.749 368.485 558.982 368.042 558.363 367.413C557.754 366.787 557.345 366.047 557.138 365.195C556.938 364.353 556.961 363.492 557.208 362.612ZM558.542 362.986C558.369 363.606 558.353 364.197 558.496 364.761C558.647 365.327 558.946 365.818 559.392 366.233C559.844 366.66 560.416 366.971 561.108 367.165C561.8 367.359 562.446 367.389 563.045 367.257C563.642 367.133 564.148 366.868 564.562 366.461C564.977 366.053 565.271 365.54 565.445 364.919C565.618 364.299 565.634 363.708 565.491 363.144C565.349 362.581 565.056 362.087 564.613 361.662C564.167 361.247 563.598 360.942 562.906 360.748C562.214 360.554 561.565 360.518 560.959 360.639C560.36 360.771 559.848 361.04 559.425 361.445C559.01 361.852 558.716 362.365 558.542 362.986ZM556.711 386.984C556.245 386.817 555.846 386.549 555.512 386.181C555.178 385.814 554.965 385.341 554.875 384.763C554.794 384.189 554.889 383.524 555.16 382.768L555.756 381.108L552.04 379.774L552.58 378.272L561.737 381.559L560.602 384.722C560.35 385.424 560.014 385.973 559.595 386.368C559.181 386.775 558.725 387.023 558.227 387.112C557.726 387.209 557.221 387.167 556.711 386.984ZM556.386 383.208C556.181 383.779 556.155 384.251 556.309 384.623C556.472 384.999 556.79 385.272 557.264 385.442C558.266 385.802 558.97 385.415 559.377 384.282L559.973 382.621L556.982 381.548L556.386 383.208ZM546.786 393.674L551.235 393.062L551.692 391.933L548.086 390.47L548.686 388.991L557.702 392.649L556.439 395.763C556.158 396.455 555.8 396.989 555.365 397.367C554.926 397.753 554.456 397.98 553.955 398.049C553.45 398.126 552.947 398.063 552.446 397.859C551.857 397.62 551.391 397.23 551.047 396.687C550.709 396.157 550.597 395.502 550.711 394.723L546.07 395.438L546.786 393.674ZM552.873 392.412L552.21 394.047C551.985 394.6 551.955 395.071 552.119 395.46C552.28 395.858 552.594 396.152 553.061 396.341C553.528 396.531 553.948 396.54 554.32 396.368C554.7 396.2 555.004 395.835 555.232 395.273L555.896 393.639L552.873 392.412ZM542.207 404.008C542.586 403.186 543.127 402.516 543.83 401.997C544.536 401.491 545.327 401.193 546.201 401.103C547.08 401.026 547.951 401.187 548.816 401.586C549.68 401.986 550.363 402.543 550.865 403.258C551.364 403.982 551.645 404.775 551.709 405.638C551.778 406.513 551.623 407.361 551.243 408.183C550.859 409.013 550.314 409.681 549.607 410.188C548.905 410.706 548.119 411.006 547.248 411.087C546.378 411.168 545.511 411.009 544.647 410.61C543.782 410.211 543.095 409.651 542.584 408.932C542.082 408.217 541.796 407.422 541.728 406.547C541.663 405.685 541.823 404.838 542.207 404.008ZM543.465 404.589C543.195 405.174 543.085 405.756 543.137 406.334C543.196 406.917 543.413 407.449 543.787 407.93C544.166 408.424 544.681 408.822 545.334 409.123C545.986 409.424 546.619 409.557 547.231 409.522C547.84 409.495 548.382 409.313 548.856 408.977C549.33 408.641 549.702 408.18 549.972 407.596C550.242 407.011 550.352 406.429 550.3 405.85C550.249 405.271 550.038 404.737 549.668 404.247C549.294 403.766 548.781 403.375 548.129 403.073C547.476 402.772 546.841 402.633 546.224 402.656C545.611 402.692 545.064 402.876 544.581 403.208C544.107 403.544 543.735 404.005 543.465 404.589ZM541.163 421.942C540.724 421.715 540.363 421.397 540.081 420.988C539.798 420.579 539.65 420.082 539.637 419.498C539.633 418.918 539.815 418.271 540.183 417.558L540.994 415.991L537.487 414.178L538.22 412.76L546.863 417.229L545.32 420.214C544.977 420.877 544.571 421.376 544.103 421.712C543.639 422.061 543.155 422.246 542.649 422.269C542.14 422.299 541.644 422.19 541.163 421.942ZM541.34 418.156C541.061 418.695 540.974 419.159 541.077 419.549C541.188 419.943 541.468 420.255 541.916 420.487C542.861 420.975 543.61 420.685 544.163 419.616L544.973 418.049L542.15 416.589L541.34 418.156ZM530.425 427.252L534.916 427.247L535.522 426.191L532.146 424.253L532.941 422.869L541.38 427.712L539.707 430.627C539.336 431.274 538.909 431.755 538.427 432.071C537.94 432.394 537.443 432.556 536.938 432.556C536.427 432.564 535.937 432.433 535.467 432.164C534.917 431.848 534.508 431.398 534.241 430.814C533.977 430.243 533.954 429.579 534.173 428.822L529.477 428.904L530.425 427.252ZM536.627 426.825L535.749 428.355C535.452 428.873 535.358 429.336 535.469 429.743C535.574 430.159 535.846 430.492 536.283 430.743C536.72 430.994 537.134 431.06 537.526 430.94C537.925 430.825 538.276 430.505 538.578 429.978L539.456 428.448L536.627 426.825ZM534.411 439.669L526.136 434.551L526.976 433.194L535.251 438.312L534.411 439.669ZM529.54 444.93L527.159 443.352L525.303 446.152L524.217 445.433L526.074 442.632L523.589 440.984L521.5 444.135L520.415 443.415L523.386 438.935L531.507 444.319L528.536 448.8L527.451 448.08L529.54 444.93ZM521.847 458.374L520.788 457.616L522.296 455.51L515.444 450.603L516.373 449.306L523.226 454.213L524.742 452.095L525.8 452.854L521.847 458.374ZM509.105 462.34L511.621 459.136L510.49 457.357L511.52 456.047L517.029 464.808L515.888 466.261L506.071 462.983L507.109 461.662L509.105 462.34ZM510.406 462.792L514.939 464.341L512.369 460.292L510.406 462.792ZM499.9 470.397L504.311 471.239L505.105 470.316L502.156 467.776L503.197 466.567L510.571 472.915L508.379 475.461C507.892 476.027 507.382 476.419 506.849 476.638C506.31 476.863 505.792 476.929 505.295 476.833C504.792 476.745 504.335 476.525 503.925 476.171C503.444 475.757 503.127 475.238 502.975 474.615C502.823 474.004 502.926 473.347 503.284 472.646L498.658 471.84L499.9 470.397ZM506.071 471.147L504.92 472.484C504.53 472.936 504.351 473.373 504.383 473.794C504.408 474.223 504.612 474.601 504.994 474.93C505.376 475.259 505.77 475.401 506.177 475.358C506.592 475.32 506.996 475.071 507.392 474.612L508.543 473.275L506.071 471.147ZM497.567 487.487L495.236 480.899L492.66 478.49L493.75 477.324L496.327 479.734L503.065 481.608L501.851 482.907L496.824 481.292L498.772 486.199L497.567 487.487ZM482.325 495.93C481.88 496.22 481.368 496.322 480.79 496.238C480.212 496.154 479.724 495.901 479.328 495.479C478.99 495.118 478.778 494.702 478.694 494.231C478.609 493.773 478.664 493.292 478.858 492.79C479.059 492.295 479.394 491.826 479.863 491.386L482.701 488.722L489.361 495.815L486.656 498.354C486.173 498.808 485.681 499.116 485.181 499.279C484.681 499.441 484.211 499.466 483.772 499.353C483.34 499.247 482.964 499.024 482.644 498.684C482.261 498.275 482.05 497.833 482.013 497.356C481.975 496.88 482.079 496.404 482.325 495.93ZM485.399 493.927L483.96 495.278C483.579 495.636 483.363 495.999 483.312 496.367C483.26 496.749 483.387 497.102 483.694 497.429C483.994 497.749 484.336 497.895 484.72 497.867C485.104 497.853 485.486 497.667 485.867 497.309L487.306 495.958L485.399 493.927ZM480.857 492.239C480.462 492.609 480.242 492.995 480.196 493.397C480.15 493.798 480.287 494.169 480.607 494.509C480.933 494.856 481.31 495.02 481.74 495C482.17 494.981 482.582 494.786 482.977 494.415L484.508 492.978L482.428 490.763L480.857 492.239ZM473.64 498.854L471.156 501.011L470.311 500.039L474 496.835L480.38 504.181L479.175 505.228L473.64 498.854ZM471.032 510.469L469.233 508.25L466.623 510.366L465.803 509.355L468.414 507.239L466.536 504.922L463.599 507.303L462.779 506.291L466.956 502.906L473.092 510.475L468.915 513.861L468.095 512.849L471.032 510.469ZM452.414 514.197L453.696 513.246L461.882 516.218L457.552 510.384L458.833 509.432L464.641 517.257L463.359 518.208L455.181 515.247L459.503 521.07L458.222 522.021L452.414 514.197ZM451.022 527.089C450.162 527.667 449.299 528.005 448.432 528.104C447.563 528.217 446.745 528.08 445.98 527.695C445.213 527.322 444.553 526.726 444.001 525.904C443.449 525.083 443.148 524.251 443.098 523.407C443.041 522.569 443.228 521.768 443.66 521.006C444.089 520.256 444.734 519.592 445.593 519.014L448.231 517.241L453.659 525.316L451.022 527.089ZM446.32 520.094C445.375 520.73 444.822 521.472 444.663 522.322C444.503 523.172 444.735 524.061 445.36 524.991C445.99 525.928 446.734 526.491 447.592 526.679C448.449 526.867 449.351 526.644 450.296 526.008L451.608 525.126L447.633 519.212L446.32 520.094ZM434.624 526.04C435.182 525.7 435.742 525.49 436.305 525.41C436.873 525.337 437.394 525.403 437.867 525.606C438.341 525.809 438.723 526.15 439.014 526.629L437.555 527.517C437.305 527.178 436.986 526.968 436.598 526.887C436.202 526.811 435.777 526.911 435.323 527.188C434.852 527.474 434.554 527.809 434.426 528.193C434.304 528.584 434.352 528.959 434.571 529.318C434.74 529.597 434.963 529.773 435.237 529.847C435.503 529.925 435.789 529.937 436.094 529.882C436.392 529.832 436.789 529.732 437.288 529.581C437.917 529.395 438.447 529.269 438.877 529.203C439.304 529.151 439.732 529.207 440.161 529.373C440.589 529.538 440.961 529.88 441.276 530.398C441.568 530.876 441.703 531.368 441.682 531.872C441.662 532.376 441.494 532.855 441.18 533.309C440.866 533.762 440.426 534.161 439.86 534.506C439.055 534.996 438.274 535.193 437.516 535.097C436.755 535.014 436.133 534.639 435.65 533.971L437.157 533.054C437.365 533.342 437.666 533.514 438.061 533.569C438.455 533.624 438.867 533.521 439.297 533.258C439.688 533.021 439.946 532.727 440.072 532.377C440.198 532.027 440.147 531.665 439.919 531.29C439.763 531.035 439.559 530.87 439.305 530.795C439.049 530.733 438.772 530.726 438.475 530.776C438.177 530.826 437.787 530.922 437.305 531.062C436.662 531.246 436.124 531.366 435.689 531.424C435.246 531.486 434.808 531.43 434.374 531.257C433.938 531.096 433.559 530.753 433.239 530.227C432.982 529.804 432.855 529.335 432.858 528.82C432.853 528.309 432.999 527.805 433.297 527.307C433.592 526.822 434.034 526.399 434.624 526.04ZM345.087 561.727L346.647 561.391L352.873 567.481L351.341 560.379L352.902 560.042L354.955 569.567L353.395 569.904L347.172 563.827L348.701 570.916L347.141 571.252L345.087 561.727ZM335.625 563.392C336.519 563.245 337.377 563.316 338.2 563.606C339.016 563.907 339.707 564.394 340.272 565.067C340.829 565.75 341.185 566.562 341.34 567.501C341.495 568.441 341.417 569.319 341.108 570.136C340.789 570.955 340.29 571.633 339.613 572.171C338.927 572.719 338.138 573.066 337.245 573.214C336.342 573.363 335.483 573.287 334.667 572.986C333.844 572.696 333.154 572.214 332.598 571.539C332.043 570.865 331.687 570.058 331.532 569.119C331.378 568.179 331.454 567.296 331.763 566.47C332.072 565.653 332.57 564.97 333.255 564.422C333.933 563.884 334.723 563.541 335.625 563.392ZM335.851 564.76C335.215 564.865 334.673 565.101 334.222 565.468C333.774 565.845 333.455 566.323 333.267 566.903C333.071 567.493 333.032 568.143 333.149 568.852C333.265 569.561 333.511 570.159 333.884 570.646C334.249 571.135 334.703 571.481 335.247 571.684C335.792 571.888 336.382 571.937 337.017 571.832C337.652 571.728 338.195 571.491 338.645 571.124C339.096 570.757 339.419 570.282 339.617 569.701C339.805 569.121 339.841 568.477 339.724 567.768C339.607 567.059 339.365 566.455 339 565.958C338.626 565.47 338.166 565.121 337.62 564.908C337.076 564.704 336.486 564.655 335.851 564.76ZM318.202 565.918L319.788 565.735L325.389 572.404L324.558 565.186L326.144 565.003L327.258 574.683L325.673 574.866L320.073 568.211L320.902 575.415L319.317 575.598L318.202 565.918ZM299.621 574.189C299.893 574.663 300.259 575.012 300.716 575.236C301.175 575.468 301.698 575.572 302.285 575.547C302.929 575.52 303.496 575.351 303.987 575.04C304.478 574.73 304.857 574.302 305.124 573.759C305.381 573.215 305.494 572.594 305.464 571.894C305.435 571.195 305.268 570.581 304.966 570.052C304.654 569.533 304.24 569.139 303.724 568.872C303.208 568.604 302.629 568.484 301.985 568.511C301.118 568.548 300.424 568.821 299.904 569.329C299.384 569.837 299.081 570.508 298.995 571.343L302.646 571.188L302.7 572.461L297.343 572.689L297.29 571.444C297.36 570.684 297.601 569.978 298.012 569.325C298.414 568.673 298.957 568.141 299.64 567.729C300.314 567.326 301.075 567.107 301.924 567.071C302.838 567.032 303.681 567.206 304.454 567.593C305.228 567.99 305.855 568.557 306.334 569.293C306.805 570.03 307.06 570.873 307.101 571.825C307.142 572.776 306.959 573.638 306.553 574.412C306.137 575.187 305.561 575.8 304.823 576.252C304.077 576.713 303.252 576.963 302.347 577.002C301.312 577.046 300.383 576.829 299.559 576.35C298.726 575.881 298.108 575.188 297.705 574.271L299.621 574.189ZM282.127 577.136L282.219 567.407L283.815 567.422L283.752 574.085L286.783 567.45L287.889 567.46L290.808 574.152L290.871 567.488L292.467 567.503L292.375 577.233L290.653 577.217L287.309 569.555L283.835 577.152L282.127 577.136ZM272.622 566.934C273.526 566.989 274.347 567.25 275.085 567.716C275.813 568.191 276.378 568.819 276.779 569.601C277.17 570.392 277.336 571.262 277.278 572.213C277.22 573.163 276.948 574.002 276.464 574.73C275.971 575.457 275.334 576.007 274.554 576.38C273.763 576.761 272.917 576.924 272.013 576.869C271.1 576.813 270.279 576.548 269.551 576.073C268.813 575.607 268.248 574.983 267.856 574.201C267.465 573.42 267.298 572.554 267.357 571.604C267.415 570.654 267.686 569.81 268.171 569.073C268.655 568.345 269.292 567.791 270.083 567.409C270.863 567.036 271.71 566.878 272.622 566.934ZM272.538 568.317C271.895 568.278 271.313 568.387 270.792 568.645C270.271 568.912 269.854 569.307 269.541 569.83C269.219 570.362 269.036 570.987 268.992 571.704C268.948 572.422 269.053 573.059 269.309 573.617C269.555 574.175 269.921 574.613 270.406 574.933C270.892 575.253 271.456 575.432 272.099 575.472C272.741 575.511 273.323 575.402 273.844 575.144C274.365 574.886 274.786 574.496 275.108 573.973C275.421 573.45 275.599 572.83 275.643 572.112C275.687 571.395 275.586 570.753 275.34 570.186C275.085 569.628 274.715 569.185 274.23 568.856C273.744 568.536 273.18 568.357 272.538 568.317ZM256.209 570.62C256.081 571.564 255.748 572.38 255.212 573.07C254.666 573.759 253.99 574.261 253.184 574.575C252.368 574.897 251.512 574.997 250.615 574.875C249.588 574.736 248.712 574.358 247.985 573.741C247.249 573.132 246.763 572.341 246.528 571.367L248.429 571.625C248.609 572.168 248.904 572.594 249.314 572.904C249.724 573.214 250.221 573.409 250.803 573.488C251.441 573.575 252.03 573.509 252.568 573.29C253.106 573.071 253.555 572.713 253.915 572.216C254.265 571.717 254.489 571.112 254.586 570.4C254.683 569.688 254.629 569.044 254.424 568.47C254.211 567.895 253.874 567.425 253.415 567.061C252.955 566.707 252.405 566.486 251.767 566.399C251.185 566.32 250.654 566.375 250.176 566.565C249.699 566.754 249.3 567.086 248.981 567.561L247.081 567.302C247.567 566.426 248.247 565.793 249.119 565.403C249.983 565.012 250.927 564.886 251.954 565.026C252.86 565.149 253.66 565.47 254.352 565.988C255.044 566.515 255.56 567.184 255.902 567.993C256.235 568.801 256.337 569.677 256.209 570.62ZM239.501 571.814L240.007 569.003L236.7 568.408L236.931 567.126L240.238 567.722L240.767 564.787L237.046 564.117L237.277 562.836L242.568 563.789L240.841 573.378L235.55 572.425L235.781 571.144L239.501 571.814ZM227.389 560.796L228.725 565.083L229.914 565.348L230.763 561.55L232.321 561.899L230.198 571.394L226.919 570.661C226.19 570.498 225.604 570.233 225.16 569.866C224.707 569.497 224.405 569.071 224.255 568.588C224.095 568.102 224.075 567.596 224.193 567.067C224.331 566.448 224.64 565.924 225.118 565.496C225.586 565.074 226.213 564.856 227.001 564.84L225.53 560.38L227.389 560.796ZM229.636 566.592L227.914 566.207C227.332 566.076 226.862 566.124 226.505 566.351C226.139 566.575 225.901 566.933 225.792 567.425C225.682 567.917 225.742 568.332 225.972 568.67C226.2 569.018 226.611 569.258 227.203 569.39L228.924 569.775L229.636 566.592ZM212.12 567.046L212.455 565.788L214.958 566.453L217.121 558.307L218.664 558.717L216.5 566.862L219.017 567.531L218.683 568.789L212.12 567.046ZM205.756 565.26L208.562 555.944L210.09 556.404L207.284 565.72L205.756 565.26ZM195.088 561.817L195.503 560.583L199.417 561.899L200.332 559.179L197.28 558.152L197.695 556.918L200.747 557.945L202.104 553.911L203.617 554.419L200.515 563.642L195.088 561.817ZM189.006 559.684L192.382 550.558L193.879 551.112L190.503 560.237L189.006 559.684ZM182.894 555.96L183.965 553.312L180.851 552.052L181.339 550.845L184.454 552.105L185.572 549.341L182.068 547.923L182.557 546.716L187.54 548.733L183.885 557.765L178.902 555.749L179.39 554.542L182.894 555.96ZM170.975 552.322C170.032 551.892 169.291 551.335 168.752 550.648C168.201 549.967 167.889 549.199 167.816 548.346C167.731 547.497 167.893 546.622 168.303 545.722C168.713 544.821 169.264 544.129 169.956 543.644C170.64 543.155 171.42 542.895 172.296 542.863C173.16 542.836 174.063 543.037 175.006 543.466L177.898 544.783L173.867 553.638L170.975 552.322ZM174.466 544.651C173.43 544.179 172.508 544.098 171.701 544.407C170.894 544.717 170.258 545.381 169.794 546.4C169.326 547.428 169.237 548.356 169.526 549.185C169.815 550.014 170.478 550.665 171.514 551.137L172.954 551.792L175.906 545.306L174.466 544.651ZM101.861 502.496C101.218 503.198 100.48 503.681 99.6461 503.943C98.8054 504.198 97.9643 504.226 97.123 504.026C96.2684 503.826 95.5071 503.421 94.839 502.81C94.0745 502.11 93.5693 501.301 93.3234 500.38C93.0643 499.46 93.1153 498.533 93.4766 497.599L94.892 498.893C94.7315 499.442 94.7316 499.961 94.8921 500.449C95.0527 500.937 95.3499 501.38 95.7838 501.776C96.2591 502.211 96.7803 502.492 97.3475 502.618C97.9147 502.745 98.4877 502.706 99.0665 502.502C99.6384 502.291 100.167 501.921 100.652 501.391C101.137 500.86 101.459 500.301 101.617 499.712C101.769 499.118 101.76 498.54 101.59 497.979C101.413 497.426 101.087 496.932 100.612 496.497C100.178 496.1 99.7104 495.844 99.2098 495.727C98.7091 495.611 98.1926 495.657 97.6602 495.866L96.2448 494.572C97.1433 494.128 98.0622 493.995 99.0015 494.171C99.934 494.341 100.782 494.775 101.547 495.474C102.222 496.092 102.697 496.81 102.971 497.63C103.239 498.457 103.284 499.301 103.104 500.161C102.918 501.015 102.503 501.793 101.861 502.496ZM92.4934 488.902L90.1609 486.582L91.0693 485.669L94.5332 489.114L87.6711 496.013L86.5396 494.887L92.4934 488.902ZM79.8106 488.085L86.8606 481.379L87.9606 482.535L80.9106 489.241L79.8106 488.085ZM78.0213 471.62L79.0795 472.814L76.824 481.227L82.2633 476.409L83.3215 477.604L76.0271 484.065L74.9689 482.87L77.214 474.467L71.7851 479.275L70.7269 478.08L78.0213 471.62ZM66.0955 472.679L73.604 466.49L74.6191 467.722L67.1105 473.91L66.0955 472.679ZM66.7837 465.862C66.0272 466.44 65.2155 466.784 64.3484 466.895C63.4757 466.998 62.643 466.876 61.8503 466.531C61.0444 466.183 60.3667 465.65 59.8171 464.93C59.1881 464.107 58.8339 463.221 58.7544 462.271C58.6619 461.32 58.876 460.417 59.3966 459.561L60.5611 461.085C60.3062 461.597 60.2146 462.107 60.2864 462.616C60.3581 463.125 60.5725 463.613 60.9295 464.08C61.3205 464.592 61.7839 464.96 62.3198 465.185C62.8557 465.41 63.4266 465.473 64.0324 465.374C64.6325 465.268 65.2181 464.997 65.7892 464.56C66.3602 464.124 66.7758 463.63 67.036 463.079C67.2905 462.521 67.3834 461.951 67.3147 461.369C67.2386 460.793 67.0051 460.249 66.6141 459.737C66.2571 459.27 65.8425 458.935 65.3702 458.732C64.898 458.529 64.3814 458.483 63.8205 458.594L62.6561 457.07C63.6187 456.793 64.5467 456.824 65.4402 457.163C66.328 457.495 67.0864 458.072 67.7154 458.895C68.2707 459.622 68.611 460.413 68.7363 461.269C68.8541 462.131 68.7487 462.969 68.4199 463.784C68.0856 464.591 67.5401 465.284 66.7837 465.862ZM56.9713 447.697L59.2868 451.049L61.3203 450.495L62.2672 451.866L52.2687 454.536L51.2184 453.015L57.2543 444.609L58.2091 445.991L56.9713 447.697ZM56.1547 448.806L53.3332 452.677L57.9609 451.42L56.1547 448.806ZM52.7334 440.151L50.9681 437.375L52.0549 436.684L54.6766 440.807L46.466 446.028L45.6096 444.681L52.7334 440.151ZM47.7998 432.214L46.135 429.377L47.246 428.725L49.7184 432.939L41.326 437.863L40.5184 436.486L47.7998 432.214ZM33.0563 423.184L40.0434 423.067L43.147 421.39L43.9059 422.794L40.8024 424.471L36.8845 430.266L36.039 428.702L39.1667 424.448L33.8952 424.736L33.0563 423.184ZM25.3932 407.525L26.5774 406.984L28.2942 410.74L30.9045 409.547L29.5659 406.618L30.7501 406.077L32.0886 409.006L35.9595 407.237L36.6229 408.688L27.7735 412.733L25.3932 407.525ZM30.8051 395.17C31.1466 396.009 31.2672 396.862 31.1669 397.729C31.0545 398.591 30.7327 399.372 30.2015 400.072C29.6582 400.767 28.9457 401.294 28.064 401.653C27.1823 402.012 26.3087 402.131 25.4431 402.01C24.5739 401.881 23.8023 401.545 23.1281 401.003C22.4418 400.456 21.9279 399.764 21.5864 398.925C21.2414 398.078 21.1251 397.223 21.2376 396.361C21.3378 395.494 21.6553 394.715 22.19 394.023C22.7247 393.332 23.4329 392.807 24.3145 392.448C25.1962 392.088 26.0742 391.968 26.9484 392.085C27.8141 392.206 28.59 392.54 29.2763 393.087C29.9505 393.629 30.4601 394.323 30.8051 395.17ZM29.5215 395.693C29.2786 395.097 28.9281 394.62 28.47 394.262C28.0033 393.908 27.4664 393.703 26.8595 393.648C26.2403 393.588 25.598 393.693 24.9324 393.965C24.2668 394.236 23.7379 394.607 23.3457 395.079C22.95 395.543 22.7132 396.063 22.6354 396.639C22.5575 397.214 22.6401 397.801 22.883 398.397C23.1259 398.994 23.4764 399.471 23.9345 399.828C24.3926 400.186 24.9269 400.396 25.5373 400.46C26.1443 400.515 26.7806 400.407 27.4461 400.136C28.1117 399.865 28.6467 399.496 29.0511 399.029C29.4433 398.557 29.6826 398.031 29.7691 397.452C29.8469 396.876 29.7644 396.29 29.5215 395.693ZM25.4466 381.517L22.5244 384.927L22.9306 386.075L26.5998 384.777L27.132 386.282L17.959 389.527L16.8385 386.359C16.5895 385.655 16.5026 385.018 16.5778 384.447C16.6498 383.867 16.8506 383.385 17.1801 383.001C17.5065 382.608 17.9249 382.322 18.4353 382.141C19.0336 381.93 19.6414 381.913 20.2586 382.09C20.864 382.262 21.3822 382.678 21.8135 383.337L24.8116 379.722L25.4466 381.517ZM21.7295 386.5L21.1412 384.837C20.942 384.274 20.6518 383.901 20.2707 383.719C19.8864 383.529 19.4567 383.517 18.9815 383.685C18.5064 383.853 18.1866 384.125 18.0222 384.5C17.8491 384.878 17.8636 385.353 18.066 385.925L18.6542 387.588L21.7295 386.5ZM10.9491 367.99L20.2721 365.205L20.7289 366.734L14.3436 368.641L21.5783 369.578L21.8949 370.638L16.3631 375.402L22.7483 373.495L23.2051 375.024L13.8821 377.809L13.3892 376.159L19.7224 370.702L11.4379 369.626L10.9491 367.99ZM9.01486 361.004L15.0398 359.532C15.7561 359.357 16.2502 359.04 16.5221 358.579C16.7917 358.11 16.8446 357.54 16.6808 356.869C16.5147 356.189 16.205 355.707 15.7515 355.424C15.2958 355.132 14.7099 355.073 13.9936 355.248L7.96863 356.72L7.59 355.169L13.5877 353.704C14.3584 353.516 15.0522 353.525 15.6691 353.729C16.2859 353.934 16.7945 354.286 17.1947 354.783C17.5949 355.281 17.8781 355.87 18.0441 356.55C18.2102 357.23 18.2304 357.884 18.1048 358.51C17.9769 359.127 17.6853 359.664 17.2301 360.121C16.7749 360.579 16.1619 360.901 15.3912 361.089L9.39349 362.554L9.01486 361.004ZM14.2795 346.535L13.625 343.311L14.8873 343.054L15.8592 347.843L6.32366 349.778L6.00618 348.214L14.2795 346.535ZM11.1569 333.245L11.8039 337.267L13.8779 337.643L14.1425 339.288L3.9685 337.393L3.67501 335.569L12.7417 330.58L13.0085 332.238L11.1569 333.245ZM9.94259 333.894L5.72923 336.174L10.4473 337.032L9.94259 333.894ZM1.65229 320.942L2.94522 320.789L3.25037 323.361L11.6197 322.368L11.8077 323.952L3.4384 324.945L3.7452 327.531L2.45227 327.685L1.65229 320.942ZM2.26259 314.195L5.10991 313.973L4.84822 310.623L6.14626 310.521L6.40796 313.871L9.3809 313.639L9.08649 309.87L10.3845 309.769L10.8032 315.129L1.08885 315.888L0.670137 310.528L1.96818 310.427L2.26259 314.195ZM0.192501 301.924C0.153871 300.889 0.320641 299.976 0.692811 299.187C1.05531 298.389 1.6018 297.766 2.33228 297.319C3.05309 296.862 3.90782 296.616 4.89647 296.579C5.88511 296.542 6.75119 296.724 7.49469 297.126C8.23784 297.519 8.8199 298.1 9.24086 298.868C9.65215 299.628 9.87711 300.526 9.91573 301.561L10.0342 304.737L0.310999 305.1L0.192501 301.924ZM8.61464 301.61C8.57218 300.472 8.23186 299.611 7.59367 299.028C6.95547 298.445 6.07677 298.174 4.95754 298.216C3.829 298.258 2.95892 298.594 2.34732 299.224C1.73571 299.854 1.45114 300.737 1.4936 301.875L1.55258 303.456L8.67363 303.191L8.61464 301.61ZM9.93605 212.926C10.2159 211.928 10.6536 211.111 11.2492 210.473C11.8384 209.824 12.5492 209.398 13.3815 209.196C14.2074 208.981 15.0966 209.008 16.0492 209.275C17.0018 209.542 17.7705 209.981 18.3555 210.591C18.943 211.192 19.3196 211.923 19.4853 212.783C19.6446 213.633 19.5843 214.556 19.3045 215.553L18.4462 218.613L9.07774 215.986L9.93605 212.926ZM18.0509 215.202C18.3584 214.106 18.2975 213.182 17.8683 212.432C17.439 211.681 16.6852 211.155 15.6068 210.852C14.5194 210.547 13.5883 210.601 12.8134 211.014C12.0384 211.426 11.4972 212.181 11.1897 213.277L10.7624 214.8L17.6236 216.725L18.0509 215.202ZM13.2091 201.625L22.4789 204.582L21.9939 206.103L12.7241 203.146L13.2091 201.625ZM16.6569 195.342L19.3493 196.295L20.4702 193.127L21.6976 193.561L20.5767 196.729L23.3878 197.724L24.6489 194.16L25.8763 194.595L24.0828 199.663L14.897 196.412L16.6905 191.344L17.9179 191.778L16.6569 195.342ZM20.8663 180.424L22.0767 180.904L21.1224 183.312L28.9575 186.417L28.3694 187.901L20.5344 184.795L19.5749 187.216L18.3645 186.736L20.8663 180.424ZM32.2735 173.496L30.6051 177.213L32.1322 178.666L31.4499 180.186L23.9879 173.015L24.7447 171.329L35.0618 172.139L34.3738 173.672L32.2735 173.496ZM30.9022 173.372L26.1289 172.963L29.6008 176.271L30.9022 173.372ZM39.2592 163.455L34.7756 163.704L34.2276 164.792L37.7035 166.543L36.9854 167.968L28.2958 163.591L29.8075 160.59C30.1434 159.923 30.5435 159.419 31.0079 159.078C31.4764 158.729 31.9632 158.541 32.4684 158.513C32.9777 158.477 33.4741 158.581 33.9576 158.824C34.5244 159.11 34.9572 159.537 35.256 160.105C35.5507 160.662 35.6092 161.323 35.4316 162.091L40.1159 161.754L39.2592 163.455ZM33.0898 164.219L33.8835 162.643C34.1522 162.11 34.2204 161.643 34.088 161.241C33.9599 160.832 33.6707 160.514 33.2206 160.287C32.7705 160.06 32.3532 160.017 31.9688 160.158C31.576 160.295 31.2432 160.634 30.9702 161.176L30.1766 162.751L33.0898 164.219ZM37.3942 146.307L41.2468 152.137L44.3293 153.853L43.553 155.247L40.4705 153.531L33.4786 153.34L34.3434 151.787L39.611 152.14L36.5361 147.848L37.3942 146.307ZM53.3449 138.878C52.9911 139.428 52.5785 139.861 52.1071 140.179C51.6279 140.492 51.1308 140.661 50.616 140.684C50.1012 140.708 49.6084 140.568 49.1376 140.265L50.0627 138.829C50.436 139.025 50.8147 139.075 51.199 138.978C51.5883 138.874 51.927 138.598 52.2151 138.151C52.5133 137.688 52.636 137.256 52.5832 136.855C52.5224 136.45 52.3155 136.133 51.9625 135.906C51.6879 135.729 51.4112 135.667 51.1324 135.721C50.8587 135.767 50.5964 135.881 50.3456 136.063C50.0998 136.238 49.7855 136.502 49.4027 136.855C48.9177 137.297 48.4959 137.642 48.1373 137.888C47.776 138.122 47.3664 138.258 46.9088 138.296C46.4512 138.334 45.9674 138.189 45.4574 137.86C44.9866 137.557 44.6505 137.174 44.4491 136.711C44.2477 136.248 44.1893 135.744 44.274 135.199C44.3586 134.654 44.5804 134.103 44.9393 133.546C45.4499 132.754 46.067 132.235 46.7906 131.991C47.5115 131.734 48.2348 131.8 48.9607 132.19L48.0053 133.673C47.692 133.504 47.346 133.481 46.9673 133.604C46.5887 133.726 46.2629 133.999 45.9899 134.423C45.7422 134.807 45.6381 135.184 45.6775 135.554C45.717 135.924 45.9211 136.227 46.2898 136.465C46.5409 136.626 46.7969 136.686 47.0577 136.643C47.3157 136.587 47.5676 136.472 47.8134 136.297C48.0592 136.122 48.3684 135.866 48.7411 135.529C49.239 135.084 49.6712 134.741 50.0376 134.499C50.4091 134.25 50.8276 134.109 51.293 134.076C51.7557 134.03 52.246 134.173 52.7638 134.507C53.1797 134.775 53.4987 135.141 53.7208 135.607C53.9481 136.064 54.0364 136.582 53.9859 137.16C53.9327 137.725 53.719 138.298 53.3449 138.878ZM50.7931 124.931L55.8493 128.523C56.4504 128.95 57.0139 129.116 57.5399 129.02C58.0713 128.916 58.5369 128.583 58.9369 128.02C59.3423 127.45 59.5036 126.9 59.4208 126.372C59.3435 125.836 59.0043 125.355 58.4031 124.928L53.3469 121.336L54.2712 120.035L59.3046 123.61C59.9513 124.07 60.3992 124.6 60.6481 125.2C60.8971 125.801 60.9643 126.415 60.8499 127.044C60.7354 127.672 60.4755 128.272 60.0702 128.842C59.6648 129.413 59.1842 129.856 58.6284 130.171C58.0781 130.478 57.4811 130.61 56.8376 130.565C56.1941 130.52 55.549 130.267 54.9022 129.808L49.8688 126.233L50.7931 124.931ZM64.0149 111.927C64.4053 112.231 64.7019 112.61 64.9047 113.063C65.1076 113.517 65.1618 114.032 65.0675 114.609C64.9658 115.18 64.6684 115.783 64.1754 116.416L63.0919 117.808L66.2074 120.233L65.2271 121.493L57.5488 115.516L59.6126 112.865C60.0712 112.276 60.5613 111.859 61.0828 111.614C61.6027 111.356 62.1132 111.263 62.6141 111.333C63.1208 111.397 63.5877 111.594 64.0149 111.927ZM63.1479 115.616C63.5206 115.138 63.6918 114.697 63.6617 114.295C63.6242 113.888 63.4065 113.529 63.0088 113.22C62.1692 112.566 61.3796 112.714 60.6401 113.664L59.5566 115.056L62.0645 117.008L63.1479 115.616ZM71.4308 102.912C71.8088 103.231 72.0903 103.622 72.2751 104.083C72.4598 104.544 72.4937 105.061 72.3767 105.634C72.2525 106.201 71.9316 106.791 71.414 107.404L70.2765 108.753L73.2939 111.299L72.2647 112.518L64.8281 106.244L66.9949 103.676C67.4764 103.105 67.9825 102.708 68.5133 102.484C69.043 102.247 69.5567 102.174 70.0545 102.264C70.5583 102.347 71.017 102.563 71.4308 102.912ZM70.4189 106.565C70.8101 106.101 70.9986 105.668 70.9844 105.265C70.963 104.856 70.7597 104.489 70.3744 104.164C69.5612 103.478 68.7664 103.595 67.99 104.515L66.8524 105.864L69.2814 107.913L70.4189 106.565ZM79.7691 101.78L81.9823 99.3459L82.9353 100.212L79.6485 103.828L72.4492 97.2821L73.5228 96.1012L79.7691 101.78ZM81.0028 89.9344L83.0473 91.9286L85.3934 89.5234L86.3255 90.4325L83.9793 92.8378L86.114 94.92L88.7534 92.2141L89.6854 93.1232L85.9316 96.9716L78.9564 90.1678L82.7102 86.3194L83.6422 87.2285L81.0028 89.9344ZM94.0887 75.4405L100.731 82.5506L99.5647 83.6402L95.0154 78.7705L97.3958 85.6663L96.5876 86.4213L89.8593 83.5874L94.4086 88.457L93.2423 89.5465L86.6001 82.4364L87.8584 81.2609L95.5633 84.5045L92.8406 76.6065L94.0887 75.4405ZM100.276 71.596L102.131 73.7682L104.686 71.5866L105.532 72.5768L102.976 74.7584L104.912 77.0263L107.787 74.5721L108.633 75.5623L104.544 79.0528L98.2173 71.6421L102.306 68.1515L103.151 69.1418L100.276 71.596ZM118.795 67.3975L117.538 68.3806L109.279 65.615L113.755 71.3387L112.498 72.3219L106.495 64.6462L107.753 63.663L116.003 66.4176L111.535 60.7049L112.793 59.7218L118.795 67.3975ZM122.367 52.6756L123.123 53.7357L121.014 55.2395L125.908 62.1013L124.608 63.028L119.715 56.1662L117.595 57.6781L116.839 56.6181L122.367 52.6756ZM204.546 12.554L207.494 21.8267L205.973 22.3102L203.954 15.9594L203.145 23.2094L202.091 23.5445L197.23 18.0971L199.249 24.4479L197.728 24.9314L194.78 15.6587L196.421 15.137L201.988 21.3735L202.919 13.0714L204.546 12.554ZM217.615 16.9066L213.673 17.9356L213.498 20.0359L211.886 20.4567L212.798 10.1482L214.586 9.68141L220.42 18.229L218.795 18.6533L217.615 16.9066ZM216.853 15.7599L214.18 11.7841L213.778 16.5626L216.853 15.7599ZM225.967 6.93832C226.981 6.72341 227.908 6.7319 228.749 6.96381C229.597 7.18464 230.304 7.61671 230.87 8.26001C231.443 8.89224 231.832 9.69226 232.037 10.6601C232.242 11.6279 232.211 12.5124 231.942 13.3136C231.682 14.1129 231.209 14.7856 230.523 15.3317C229.845 15.8668 228.999 16.2417 227.986 16.4567L224.877 17.1159L222.858 7.59758L225.967 6.93832ZM227.715 15.183C228.829 14.9468 229.619 14.4644 230.085 13.736C230.551 13.0075 230.667 12.0955 230.435 10.9999C230.201 9.8951 229.721 9.09521 228.996 8.6002C228.271 8.10519 227.351 7.97579 226.237 8.212L224.69 8.54017L226.168 15.5112L227.715 15.183ZM237.767 5.8704L238.245 8.68614L241.557 8.12395L241.775 9.4076L238.463 9.96978L238.962 12.9097L242.688 12.2773L242.906 13.5609L237.606 14.4604L235.976 4.85379L241.276 3.95429L241.494 5.23794L237.767 5.8704ZM255.035 2.01093L256.128 11.6793L254.542 11.8587L253.449 2.1903L255.035 2.01093ZM269.245 10.5265L267.654 10.6481L262.312 3.76917L262.865 11.014L261.274 11.1357L260.532 1.41999L262.123 1.29838L267.464 8.16339L266.911 0.932473L268.502 0.81086L269.245 10.5265ZM287.306 0.135064L287.319 1.437L284.729 1.46331L284.815 9.89088L283.219 9.9071L283.133 1.47953L280.529 1.50599L280.516 0.204056L287.306 0.135064ZM300.171 0.37959L299.865 10.1048L298.27 10.0546L298.404 5.80071L293.828 5.6568L293.694 9.9107L292.099 9.86053L292.405 0.135336L294 0.185507L293.869 4.35545L298.445 4.49936L298.576 0.329419L300.171 0.37959ZM307.254 2.01053L307.044 4.85876L310.394 5.10635L310.298 6.40481L306.948 6.15722L306.728 9.13112L310.498 9.40965L310.402 10.7081L305.04 10.312L305.758 0.594464L311.12 0.990603L311.024 2.28906L307.254 2.01053ZM325.013 2.4309L324.158 8.57369C324.057 9.30398 324.17 9.88039 324.497 10.3029C324.834 10.7267 325.344 10.9862 326.029 11.0814C326.722 11.1779 327.284 11.0677 327.714 10.7507C328.154 10.4349 328.425 9.91191 328.526 9.18162L329.381 3.03883L330.962 3.25885L330.111 9.3739C330.002 10.1597 329.738 10.8014 329.32 11.2992C328.902 11.7971 328.388 12.1401 327.777 12.3284C327.167 12.5167 326.515 12.5626 325.822 12.4661C325.128 12.3696 324.514 12.1475 323.978 11.7996C323.451 11.453 323.06 10.9839 322.803 10.3922C322.546 9.80044 322.472 9.1117 322.582 8.32594L323.433 2.21089L325.013 2.4309ZM337.855 14.3336C337.212 14.2146 336.655 13.9974 336.181 13.6819C335.71 13.3573 335.366 12.9613 335.149 12.4939C334.931 12.0265 334.874 11.5175 334.976 10.9669L336.655 11.278C336.615 11.6978 336.713 12.0671 336.948 12.3859C337.193 12.7065 337.576 12.9152 338.1 13.0121C338.641 13.1124 339.087 13.0621 339.437 12.8613C339.79 12.6512 340.004 12.3397 340.08 11.9267C340.14 11.6055 340.092 11.3261 339.937 11.0885C339.791 10.8526 339.585 10.6533 339.321 10.4904C339.066 10.3293 338.703 10.1386 338.231 9.91833C337.638 9.63753 337.159 9.37799 336.795 9.1397C336.442 8.89393 336.161 8.56659 335.952 8.15768C335.743 7.74876 335.694 7.24605 335.804 6.64953C335.906 6.0989 336.133 5.6426 336.485 5.28063C336.837 4.91865 337.281 4.67344 337.817 4.54499C338.353 4.41654 338.947 4.41267 339.599 4.53337C340.526 4.70508 341.24 5.07935 341.74 5.65619C342.252 6.22556 342.465 6.91999 342.38 7.73948L340.645 7.41817C340.682 7.06434 340.572 6.73548 340.315 6.43159C340.058 6.1277 339.682 5.92986 339.186 5.83806C338.737 5.75475 338.348 5.80147 338.021 5.97819C337.694 6.15492 337.491 6.45895 337.411 6.89028C337.357 7.18395 337.399 7.4433 337.538 7.66832C337.687 7.88586 337.889 8.0752 338.144 8.23633C338.399 8.39745 338.753 8.58646 339.207 8.80334C339.808 9.09501 340.289 9.36458 340.652 9.61205C341.023 9.86122 341.312 10.1949 341.52 10.6129C341.738 11.0236 341.791 11.5317 341.679 12.1374C341.589 12.6238 341.371 13.058 341.025 13.44C340.688 13.8238 340.242 14.1019 339.688 14.2746C339.145 14.4397 338.534 14.4594 337.855 14.3336ZM352.209 15.173L348.238 14.2608L347.111 16.0415L345.487 15.6685L351.067 6.95246L352.868 7.36625L354.083 17.6434L352.446 17.2672L352.209 15.173ZM352.064 13.8037L351.535 9.0423L348.967 13.0921L352.064 13.8037Z" fill="#84C12F"/>
</svg>
