{
  "accessors": [
    {
      "bufferView": 2,
      "componentType": 5126,
      "count": 11372,
      "max": [
        1.0739200115203857,
        1.3458201885223389,
        -2.031093120574951
      ],
      "min": [
        -1.6500587463378906,
        -1.1044771671295166,
        -5.945771217346191
      ],
      "type": "VEC3"
    },
    {
      "bufferView": 2,
      "byteOffset": 136464,
      "componentType": 5126,
      "count": 11372,
      "max": [
        0.9999590516090393,
        0.9999063611030579,
        0.9988797903060913
      ],
      "min": [
        -0.9999348521232605,
        -0.9999554753303528,
        -0.9949671626091003
      ],
      "type": "VEC3"
    },
    {
      "bufferView": 1,
      "componentType": 5126,
      "count": 11372,
      "max": [
        0.9999992847442627,
        0.9987602829933167
      ],
      "min": [
        6.989780104049714e-06,
        2.864748239517212e-06
      ],
      "type": "VEC2"
    },
    {
      "bufferView": 1,
      "byteOffset": 90976,
      "componentType": 5126,
      "count": 11372,
      "max": [
        0.9999992847442627,
        0.9987602829933167
      ],
      "min": [
        6.989780104049714e-06,
        2.864748239517212e-06
      ],
      "type": "VEC2"
    },
    {
      "bufferView": 0,
      "componentType": 5125,
      "count": 62286,
      "type": "SCALAR"
    },
    {
      "bufferView": 2,
      "byteOffset": 272928,
      "componentType": 5126,
      "count": 7798,
      "max": [
        1.0900201797485352,
        1.4276196956634521,
        -2.03910231590271
      ],
      "min": [
        -1.736511468887329,
        -1.08341383934021,
        -5.949172496795654
      ],
      "type": "VEC3"
    },
    {
      "bufferView": 2,
      "byteOffset": 366504,
      "componentType": 5126,
      "count": 7798,
      "max": [
        0.9999985098838806,
        0.9999945759773254,
        0.9988797903060913
      ],
      "min": [
        -0.999977707862854,
        -0.9999377131462097,
        -0.9838929772377014
      ],
      "type": "VEC3"
    },
    {
      "bufferView": 1,
      "byteOffset": 181952,
      "componentType": 5126,
      "count": 7798,
      "max": [
        0.9999700784683228,
        0.9750454425811768
      ],
      "min": [
        2.3677945137023926e-05,
        3.5855919122695923e-06
      ],
      "type": "VEC2"
    },
    {
      "bufferView": 1,
      "byteOffset": 244336,
      "componentType": 5126,
      "count": 7798,
      "max": [
        0.9999700784683228,
        0.9750454425811768
      ],
      "min": [
        2.3677945137023926e-05,
        3.5855919122695923e-06
      ],
      "type": "VEC2"
    },
    {
      "bufferView": 0,
      "byteOffset": 249144,
      "componentType": 5125,
      "count": 42354,
      "type": "SCALAR"
    },
    {
      "bufferView": 2,
      "byteOffset": 460080,
      "componentType": 5126,
      "count": 8164,
      "max": [
        0.9629725217819214,
        1.4402706623077393,
        -2.03910231590271
      ],
      "min": [
        -1.7243807315826416,
        -1.0764410495758057,
        -5.945771217346191
      ],
      "type": "VEC3"
    },
    {
      "bufferView": 2,
      "byteOffset": 558048,
      "componentType": 5126,
      "count": 8164,
      "max": [
        0.9989637732505798,
        0.9999638199806213,
        0.996955156326294
      ],
      "min": [
        -0.9999690055847168,
        -0.9999108910560608,
        -0.9949671626091003
      ],
      "type": "VEC3"
    },
    {
      "bufferView": 1,
      "byteOffset": 306720,
      "componentType": 5126,
      "count": 8164,
      "max": [
        0.9999992251396179,
        0.9934595823287964
      ],
      "min": [
        7.384456694126129e-06,
        1.1725863259925973e-05
      ],
      "type": "VEC2"
    },
    {
      "bufferView": 1,
      "byteOffset": 372032,
      "componentType": 5126,
      "count": 8164,
      "max": [
        0.9999992251396179,
        0.9934595823287964
      ],
      "min": [
        7.384456694126129e-06,
        1.1725863259925973e-05
      ],
      "type": "VEC2"
    },
    {
      "bufferView": 0,
      "byteOffset": 418560,
      "componentType": 5125,
      "count": 45360,
      "type": "SCALAR"
    }
  ],
  "asset": {
    "extras": {
      "author": "matousekfoto (https://sketchfab.com/matousekfoto)",
      "license": "CC-BY-4.0 (http://creativecommons.org/licenses/by/4.0/)",
      "source": "https://sketchfab.com/3d-models/wood-chopping-trunk-base-a8196d4889464ab7b5dfdbae60cfd708",
      "title": "Wood chopping trunk base"
    },
    "generator": "Sketchfab-12.67.0",
    "version": "2.0"
  },
  "bufferViews": [
    {
      "buffer": 0,
      "byteLength": 600000,
      "name": "floatBufferViews",
      "target": 34963
    },
    {
      "buffer": 0,
      "byteLength": 437344,
      "byteOffset": 600000,
      "byteStride": 8,
      "name": "floatBufferViews",
      "target": 34962
    },
    {
      "buffer": 0,
      "byteLength": 656016,
      "byteOffset": 1037344,
      "byteStride": 12,
      "name": "floatBufferViews",
      "target": 34962
    }
  ],
  "buffers": [
    {
      "byteLength": 1693360,
      "uri": "scene.bin"
    }
  ],
  "extensionsUsed": [
    "KHR_materials_unlit"
  ],
  "images": [
    {
      "uri": "textures/material2_baseColor.jpeg"
    },
    {
      "uri": "textures/material0_baseColor.jpeg"
    },
    {
      "uri": "textures/material1_baseColor.jpeg"
    }
  ],
  "materials": [
    {
      "doubleSided": true,
      "extensions": {
        "KHR_materials_unlit": {}
      },
      "name": "material2",
      "pbrMetallicRoughness": {
        "baseColorTexture": {
          "index": 0
        },
        "metallicFactor": 0.0
      }
    },
    {
      "doubleSided": true,
      "extensions": {
        "KHR_materials_unlit": {}
      },
      "name": "material0",
      "pbrMetallicRoughness": {
        "baseColorTexture": {
          "index": 1
        },
        "metallicFactor": 0.0
      }
    },
    {
      "doubleSided": true,
      "extensions": {
        "KHR_materials_unlit": {}
      },
      "name": "material1",
      "pbrMetallicRoughness": {
        "baseColorTexture": {
          "index": 2
        },
        "metallicFactor": 0.0
      }
    }
  ],
  "meshes": [
    {
      "name": "Model_material2_0",
      "primitives": [
        {
          "attributes": {
            "NORMAL": 1,
            "POSITION": 0,
            "TEXCOORD_0": 2,
            "TEXCOORD_1": 3
          },
          "indices": 4,
          "material": 0,
          "mode": 4
        }
      ]
    },
    {
      "name": "Model_material0_0",
      "primitives": [
        {
          "attributes": {
            "NORMAL": 6,
            "POSITION": 5,
            "TEXCOORD_0": 7,
            "TEXCOORD_1": 8
          },
          "indices": 9,
          "material": 1,
          "mode": 4
        }
      ]
    },
    {
      "name": "Model_material1_0",
      "primitives": [
        {
          "attributes": {
            "NORMAL": 11,
            "POSITION": 10,
            "TEXCOORD_0": 12,
            "TEXCOORD_1": 13
          },
          "indices": 14,
          "material": 2,
          "mode": 4
        }
      ]
    }
  ],
  "nodes": [
    {
      "children": [
        1
      ],
      "matrix": [
        -0.19342128704783512,
        -0.028901939544277333,
        -0.0022556193054437744,
        0.0,
        -0.003739491645788018,
        0.039964946106851904,
        -0.19141844519955775,
        0.0,
        0.0287476281841057,
        -0.18926088397587826,
        -0.040076089455637606,
        0.0,
        -1.2326197624206543,
        7.837852954864502,
        0.8174527287483233,
        1.0
      ],
      "name": "Sketchfab_model"
    },
    {
      "children": [
        2
      ],
      "matrix": [
        1.0,
        0.0,
        0.0,
        0.0,
        0.0,
        -1.0,
        0.0,
        0.0,
        0.0,
        0.0,
        -1.0,
        0.0,
        0.0,
        0.0,
        0.0,
        1.0
      ],
      "name": "chopping-log.fbx"
    },
    {
      "children": [
        3
      ],
      "name": "RootNode"
    },
    {
      "children": [
        4,
        5,
        6
      ],
      "name": "Model"
    },
    {
      "mesh": 0,
      "name": "Model_material2_0"
    },
    {
      "mesh": 1,
      "name": "Model_material0_0"
    },
    {
      "mesh": 2,
      "name": "Model_material1_0"
    }
  ],
  "samplers": [
    {
      "magFilter": 9729,
      "minFilter": 9987,
      "wrapS": 10497,
      "wrapT": 10497
    }
  ],
  "scene": 0,
  "scenes": [
    {
      "name": "Sketchfab_Scene",
      "nodes": [
        0
      ]
    }
  ],
  "textures": [
    {
      "sampler": 0,
      "source": 0
    },
    {
      "sampler": 0,
      "source": 1
    },
    {
      "sampler": 0,
      "source": 2
    }
  ]
}
